<svg width="47" height="51" viewBox="0 0 47 51" fill="none" xmlns="http://www.w3.org/2000/svg">
<path fill-rule="evenodd" clip-rule="evenodd" d="M12.5965 0.103793C12.3226 0.155332 11.727 0.37684 11.2729 0.595956C9.85506 1.28012 8.74656 2.5993 8.30717 4.12494C7.97316 5.28522 8.10143 6.90257 8.6143 7.99526C8.76368 8.31357 8.80163 8.48703 8.72644 8.50836C8.6641 8.5261 8.29592 8.59279 7.90833 8.6565C6.0308 8.96523 3.94843 10.4258 2.96092 12.1264C2.33153 13.2106 2.16342 13.801 1.12592 18.5747C0.00675702 23.7243 -0.136948 24.7467 0.0930994 25.9258C0.654374 28.8022 3.11319 32.3984 7.60777 36.9164L8.99264 38.3085L8.03251 42.3507C7.5045 44.574 7.0447 46.5767 7.01084 46.8012C6.93257 47.3202 7.12278 48.249 7.4331 48.8639C8.85989 51.6907 12.918 51.7178 14.3328 48.91C14.709 48.1635 16.8831 39.3575 17.0421 37.9365C17.1506 36.9661 17.0416 35.7037 16.7523 34.5799C16.6482 34.1757 15.6437 32.0371 14.0833 28.8976L11.5812 23.8633L12.1137 22.4294C12.4067 21.6407 12.6463 20.841 12.6463 20.6523C12.6463 20.1754 12.1949 19.7262 11.7156 19.7262C11.1048 19.7262 10.8612 20.044 10.3109 21.559L9.81782 22.9163H6.05351C2.8209 22.9163 2.2892 22.8958 2.2892 22.7708C2.2892 22.6909 2.69552 20.7506 3.19216 18.4593C4.2451 13.6016 4.37387 13.2441 5.46146 12.161C6.4668 11.1599 7.6019 10.6236 8.99821 10.4899C9.66953 10.4256 9.68009 10.4282 9.57084 10.6326C9.33492 11.0739 9.52443 11.6765 9.97188 11.9081C10.66 12.2643 11.0011 12.0461 11.9164 10.6637C14.1854 7.23713 17.9837 4.75836 21.5762 4.35971C23.0609 4.19502 23.8118 4.31904 24.2589 4.80282C24.699 5.27904 24.7687 5.76861 24.4785 6.34521C24.1446 7.00894 23.7857 7.16545 22.5977 7.16545C20.955 7.16545 19.1845 7.7892 17.4541 8.97769C16.5603 9.59158 15.1309 10.982 14.6624 11.6934C14.146 12.4776 14.2775 13.2116 14.9758 13.4423C15.4522 13.5997 15.865 13.4151 16.2705 12.8635C16.704 12.2738 18.0364 10.9831 18.6216 10.5862C19.1875 10.2022 20.3136 9.63464 20.9619 9.40665C21.2775 9.2956 21.9335 9.20708 22.7544 9.16461C23.8456 9.10829 24.137 9.05734 24.6088 8.84082C25.3871 8.48364 25.9342 7.95349 26.3072 7.19506C26.9237 5.94147 26.6677 4.43258 25.6623 3.39382C25.0677 2.77944 24.4453 2.49194 23.4248 2.36005C22.3995 2.22756 20.774 2.36454 19.6436 2.67856C19.2472 2.78871 18.8662 2.87763 18.7971 2.87624C18.7279 2.87484 18.5186 2.64835 18.3319 2.37281C17.3635 0.94397 15.4875 -0.0256034 13.7418 0.000515061C13.3857 0.00579857 12.8704 0.0523533 12.5965 0.103793ZM14.7444 2.13794C15.3956 2.32606 16.2227 2.86737 16.5847 3.34238C16.7301 3.53329 16.8334 3.70106 16.8141 3.71522C16.7949 3.72938 16.5103 3.88948 16.1817 4.07091C14.6295 4.92793 12.7961 6.39805 11.7345 7.63688L11.2023 8.25784L10.8803 7.89637C10.2642 7.20463 9.95824 5.98045 10.1587 5.00908C10.6085 2.82968 12.6704 1.53871 14.7444 2.13794ZM12.539 15.8307C11.7039 16.6667 12.8621 17.9809 13.8098 17.2726C14.5721 16.7029 14.1901 15.5393 13.2407 15.5393C12.9198 15.5393 12.7666 15.6029 12.539 15.8307ZM30.6038 16.5588C30.161 16.7014 28.8999 17.7536 28.5042 18.3108C28.0449 18.9573 27.8485 19.6961 27.9048 20.5657C27.9659 21.5108 28.1874 21.9646 29.2225 23.2652C29.7025 23.8683 30.1157 24.4128 30.1408 24.4752C30.1659 24.5376 30.0464 25.0399 29.8752 25.5914L29.564 26.5942L28.8276 26.2583C28.0051 25.883 27.0559 25.2911 25.7875 24.362C24.4349 23.3713 24.1898 23.2676 23.2026 23.2678C22.4788 23.268 22.2839 23.3063 21.8581 23.5322C20.7334 24.1288 20.169 25.0708 20.1667 26.3556C20.1654 27.0557 20.2017 27.2197 20.4639 27.6983C20.8214 28.3507 22.306 29.7061 23.6507 30.6079C24.8324 31.4002 27.2621 32.5847 28.6301 33.0353L29.7256 33.3961L30.6818 36.0537L31.638 38.7112L31.155 39.711C30.3905 41.2931 30.2367 42.0013 30.2344 43.9506C30.2325 45.5954 30.2325 45.5956 30.7007 47.3694C31.2298 49.3737 31.3189 49.5829 31.882 50.1467C32.4766 50.7418 33.0578 50.9741 33.958 50.9766C35.1736 50.98 36.0738 50.4257 36.671 49.3061C36.8776 48.9188 36.8995 48.7191 36.9455 46.8061L36.9954 44.727L37.7594 44.4485C38.6908 44.1087 39.7162 43.4501 40.3776 42.7666C40.8322 42.297 40.9089 42.2559 41.3327 42.2559C42.5753 42.2559 44.2766 41.5337 45.3471 40.5517C46.0886 39.8716 46.5244 39.234 46.8044 38.4192C47.0888 37.5914 47.067 37.2195 46.7129 36.865C46.1141 36.2657 45.2492 36.5806 45.0109 37.4847C44.7398 38.5137 44.0457 39.2711 42.8553 39.8371C42.4491 40.0302 42.0966 40.168 42.0721 40.1435C42.0475 40.119 42.0932 39.7879 42.1737 39.4079C42.3576 38.5389 42.3603 37.5101 42.1811 36.6733C42.1047 36.317 41.3168 33.9105 40.4303 31.3255L38.8184 26.6258L39.2538 26.0907C39.4933 25.7964 39.8001 25.3094 39.9357 25.0086C40.1521 24.5285 40.1822 24.3211 40.1822 23.315C40.1822 22.2906 40.1549 22.1103 39.9252 21.6203C39.6123 20.953 38.4031 19.424 37.7819 18.9101C36.8088 18.1053 35.4176 17.638 33.984 17.6345L33.263 17.6328L32.7202 17.1406C31.9967 16.4849 31.3694 16.3124 30.6038 16.5588ZM32.3832 19.3371C32.7079 19.5028 33.0897 19.574 33.9888 19.6366C34.913 19.7009 35.2853 19.7722 35.7085 19.9662C36.0055 20.1023 36.2485 20.2339 36.2485 20.2585C36.2485 20.2831 35.5876 20.829 34.7796 21.4716C33.1372 22.7778 32.9609 22.9547 32.5925 23.664C32.4268 23.9831 32.3161 24.1086 32.2851 24.0129C32.2584 23.9306 31.7517 23.2537 31.1589 22.5086C30.0219 21.0792 29.8749 20.8221 29.8749 20.2631C29.8749 19.7738 30.0859 19.4212 30.6904 18.8998L31.2146 18.4477L31.586 18.7836C31.7902 18.9683 32.149 19.2173 32.3832 19.3371ZM38.0118 22.2691C38.3421 22.8528 38.3286 23.7735 37.9805 24.4138C37.7183 24.8961 36.8019 25.7184 36.1517 26.0551C35.6766 26.301 34.9203 26.2178 34.5855 25.8826C34.2851 25.5819 34.1811 24.8885 34.3799 24.5113C34.5507 24.1872 37.4485 21.8215 37.6401 21.8496C37.7207 21.8616 37.888 22.0503 38.0118 22.2691ZM32.5978 26.4692C32.9151 27.0903 33.4771 27.6306 34.1074 27.9208C34.5142 28.108 34.7694 28.149 35.5016 28.1444C36.0946 28.1407 36.5208 28.0849 36.7611 27.9793L37.1242 27.8199L38.6889 32.3883C40.3759 37.3135 40.468 37.7 40.237 38.8889C40.0496 39.8537 39.597 40.7026 38.8998 41.3969C38.1614 42.1322 37.5838 42.4549 36.3979 42.7944C35.7169 42.9894 35.4358 43.1236 35.2278 43.3529L34.9539 43.6548V45.9509C34.9539 48.4467 34.9097 48.6872 34.409 48.9156C33.9983 49.1029 33.6872 49.0571 33.3576 48.7606C33.0933 48.5229 32.9993 48.2815 32.6491 46.9413C31.8564 43.9075 32.0307 42.0606 33.3176 39.8546C33.5603 39.4386 33.7589 39.0097 33.7589 38.9014C33.7589 38.7932 33.3555 37.5912 32.8626 36.2302C32.3696 34.8694 31.9663 33.7465 31.9663 33.735C31.9663 33.7237 32.1439 33.6609 32.361 33.5958C32.8541 33.448 33.0617 33.1596 33.0617 32.6226C33.0617 31.9811 32.7132 31.7376 31.6806 31.658C29.7601 31.5098 27.2162 30.5294 24.8865 29.0399C23.8142 28.3543 22.23 26.9381 22.1555 26.5986C21.9971 25.876 22.494 25.2091 23.1908 25.2091C23.4998 25.2091 23.7619 25.3546 24.7517 26.0756C25.4059 26.5522 26.2773 27.1413 26.6881 27.3846C28.0629 28.1991 29.9192 28.9209 30.3989 28.8277C30.8675 28.7366 31.0997 28.3154 31.6697 26.5222L32.2152 24.806L32.2827 25.3953C32.3198 25.7194 32.4615 26.2027 32.5978 26.4692ZM12.2482 29.6956C14.9364 35.0766 15.0634 35.4093 15.063 37.0721C15.0628 38.0695 15.0077 38.3443 13.8953 42.9006C13.2532 45.5306 12.6414 47.8521 12.5358 48.0594C12.2812 48.5588 11.6727 48.9526 11.0654 49.011C10.1234 49.1017 9.30375 48.4977 9.06205 47.5351C8.95519 47.1097 9.01206 46.8147 10.0006 42.6684C10.5794 40.2408 11.0529 38.089 11.0529 37.8866C11.0529 37.5427 10.9408 37.4069 9.35235 35.8249C5.8637 32.3505 3.79995 29.7326 2.69353 27.3783C2.21571 26.3615 1.99044 25.6523 1.99044 25.165V24.9101H5.92395H9.85745L12.2482 29.6956Z" fill="white"/>
</svg>
