<svg width="24" height="25" viewBox="0 0 24 25" fill="none" xmlns="http://www.w3.org/2000/svg">
<path d="M12 2.5H8.7C6.8 2.5 5.3 4 5.3 5.8C5.3 7.6 6.8 9.1 8.6 9.1H12V2.5Z" stroke="white" stroke-miterlimit="10"/>
<path d="M12 9.19995H8.7C6.9 9.19995 5.4 10.7 5.4 12.5C5.4 14.3 6.9 15.8 8.7 15.8H12V9.19995Z" stroke="white" stroke-miterlimit="10"/>
<path d="M12 15.8H8.7C6.9 15.8 5.4 17.3 5.4 19.1C5.4 20.9 6.9 22.4 8.7 22.4C10.5 22.4 12 20.9 12 19.1V15.8Z" stroke="white" stroke-miterlimit="10"/>
<path d="M12 2.5H15.3C17.1 2.5 18.6 4 18.6 5.8C18.6 7.6 17.1 9.1 15.3 9.1H12V2.5Z" stroke="white" stroke-miterlimit="10"/>
<path d="M15.3 9.19995C17.1 9.19995 18.6 10.7 18.6 12.5C18.6 14.3 17.1 15.8 15.3 15.8C13.5 15.8 12 14.3 12 12.5C12 10.7 13.5 9.19995 15.3 9.19995Z" stroke="white" stroke-miterlimit="10"/>
</svg>
