<svg width="30" height="28" viewBox="0 0 30 28" fill="none" xmlns="http://www.w3.org/2000/svg">
<path fill-rule="evenodd" clip-rule="evenodd" d="M14.8242 0.0172714C14.5749 0.115279 0.298301 9.00876 0.161133 9.15153L0 9.3193V10.9442C0 12.7079 0.0174023 12.8168 0.320625 12.9511C0.636738 13.0911 0.675352 13.0764 1.77521 12.3978C2.1859 12.1444 2.53459 11.9371 2.55006 11.9371C2.56547 11.9371 2.57812 15.4617 2.57812 19.7695C2.57812 28.4149 2.55082 27.8026 2.94229 27.9352C3.19699 28.0216 26.803 28.0216 27.0577 27.9352C27.4383 27.8063 27.4219 27.9938 27.4219 23.7805C27.4219 21.2686 27.4012 19.9217 27.3615 19.8498C27.2855 19.7116 27.0047 19.5681 26.8104 19.5681C26.7288 19.5681 26.5759 19.6429 26.4707 19.7343L26.2793 19.9004L26.2625 21.9552L26.2458 24.0101H23.3768H20.5078L20.5058 22.5722C20.5044 21.6287 20.4767 20.9873 20.4251 20.7071C20.1162 19.0275 19.0238 17.6267 17.4316 16.8683C16.6806 16.5105 16.2732 16.3952 15.5186 16.3265C12.8357 16.0826 10.4036 17.7251 9.66182 20.2817C9.54258 20.6928 9.52793 20.8899 9.50648 22.3728L9.48275 24.0101H6.61641H3.75L3.75053 17.5892L3.75105 11.1683L4.4976 10.7075C4.90822 10.4541 7.44006 8.88438 10.1239 7.21922L15.0037 4.19163L20.6248 7.67919L26.2458 11.1667L26.2626 13.2081L26.2793 15.2495L26.4707 15.4157C26.5759 15.507 26.7288 15.5818 26.8104 15.5818C27.0047 15.5818 27.2855 15.4383 27.3615 15.3002C27.3989 15.2324 27.4219 14.5707 27.4219 13.5639C27.4219 12.6692 27.437 11.9371 27.4554 11.9371C27.4739 11.9371 27.8793 12.1805 28.3564 12.4781C29.255 13.0386 29.3996 13.0882 29.6985 12.938C29.9832 12.7948 30 12.684 30 10.9455C30 9.42175 29.9936 9.32488 29.8834 9.18877C29.7248 8.99281 15.2884 0.040848 15.0787 0.00850142C14.9871 -0.00567867 14.8726 -0.00169234 14.8242 0.0172714ZM21.933 5.53042L28.8238 9.80153L28.826 10.6118L28.8281 11.422L28.3447 11.119C26.8451 10.1792 15.3561 3.05956 15.2507 3.00471C15.1815 2.96872 15.0614 2.93928 14.9839 2.93928C14.8983 2.93928 13.2678 3.91623 10.8345 5.42552C8.62992 6.79296 5.55398 8.70073 3.99902 9.66503L1.17188 11.4183L1.17381 10.6099L1.17574 9.80153L2.36033 9.07522C3.01184 8.67573 6.11572 6.74991 9.25781 4.79562C12.3999 2.84133 14.9868 1.24621 15.0064 1.25083C15.0261 1.2555 18.1431 3.18131 21.933 5.53042ZM10.5906 8.92373C9.16277 9.25079 8.45918 10.9354 9.25957 12.1105C9.40769 12.328 9.41877 12.3711 9.34635 12.4489C9.30064 12.498 9.19617 12.6806 9.1142 12.8547C8.61697 13.9102 9.11162 15.151 10.2293 15.6518C10.4648 15.7573 10.6195 15.781 11.0742 15.781C11.5533 15.7811 11.6767 15.7602 11.9602 15.631C12.5454 15.3643 12.9446 14.9245 13.1606 14.3084L13.2532 14.0442H15H16.7468L16.8394 14.3084C17.0554 14.9245 17.4546 15.3643 18.0398 15.631C18.3233 15.7602 18.4467 15.7811 18.9258 15.781C19.3805 15.781 19.5352 15.7573 19.7707 15.6518C20.8884 15.151 21.383 13.9102 20.8858 12.8547C20.8038 12.6806 20.6996 12.4983 20.6543 12.4496C20.5826 12.3726 20.5941 12.3278 20.7424 12.1062C21.6135 10.8047 20.7019 9.02789 19.0881 8.88142C18.121 8.79367 17.1212 9.44418 16.8539 10.3351L16.7748 10.5988H15H13.2252L13.146 10.3347C12.8463 9.3361 11.6571 8.67943 10.5906 8.92373ZM11.5484 10.1333C11.8971 10.312 12.0681 10.6094 12.0694 11.0392C12.0702 11.3189 12.0949 11.3926 12.2413 11.5518L12.4123 11.7378H15H17.5877L17.7587 11.5518C17.9039 11.3939 17.9297 11.3183 17.9297 11.0512C17.9297 10.5114 18.2378 10.1203 18.74 10.0227C19.3188 9.91025 19.9219 10.3976 19.9219 10.9776C19.9219 11.2615 19.7116 11.6217 19.4464 11.7923C19.1827 11.9619 19.0381 12.2283 19.0838 12.4606C19.1023 12.5549 19.246 12.7255 19.4572 12.904C19.9342 13.3073 20.0341 13.6689 19.7991 14.1409C19.4854 14.7707 18.5647 14.8533 18.1236 14.2912C18.0069 14.1426 17.9627 14.0013 17.9294 13.6712C17.8806 13.1865 17.7918 13.0505 17.4668 12.9628C17.1814 12.8857 12.8133 12.8872 12.5271 12.9644C12.2092 13.0503 12.0703 13.2528 12.0703 13.6304C12.0703 14.2285 11.7302 14.613 11.1604 14.6589C10.7391 14.6928 10.3791 14.4985 10.2009 14.1409C9.96586 13.6689 10.0658 13.3073 10.5428 12.904C10.754 12.7255 10.8977 12.5549 10.9163 12.4606C10.9619 12.2283 10.8173 11.9619 10.5536 11.7923C10.018 11.4478 9.92877 10.7696 10.3602 10.3214C10.6856 9.9832 11.1213 9.91423 11.5484 10.1333ZM26.472 17.1705C26.3147 17.3071 26.2819 17.3768 26.2819 17.575C26.2819 17.7731 26.3147 17.8428 26.472 17.9794C26.684 18.1635 26.8753 18.1865 27.1301 18.0584C27.3365 17.9547 27.4219 17.8132 27.4219 17.575C27.4219 17.3367 27.3365 17.1952 27.1301 17.0915C26.8753 16.9634 26.684 16.9864 26.472 17.1705ZM16.1116 17.5833C17.5446 17.9348 18.6611 18.9826 19.1668 20.4508C19.3029 20.8457 19.3044 20.8778 19.3229 23.8535L19.3417 26.8575H15.0029H10.6641L10.6651 24.0243C10.6662 20.9827 10.6812 20.793 10.9764 20.0827C11.5645 18.6673 12.9077 17.6615 14.4727 17.4645C14.958 17.4034 15.5548 17.4467 16.1116 17.5833ZM9.49219 26.0033V26.8575H6.62109H3.75V26.0033V25.1491H6.62109H9.49219V26.0033ZM26.25 26.0033V26.8575H23.3789H20.5078V26.0033V25.1491H23.3789H26.25V26.0033Z" fill="#23212B"/>
</svg>
