<svg width="51" height="48" viewBox="0 0 51 48" fill="none" xmlns="http://www.w3.org/2000/svg">
<path d="M11.3312 7.96971C11.5542 4.70644 13.7749 0.97422 15.9916 0.137213C16.1471 0.0785248 16.5534 0.0237743 16.8946 0.0157118C19.7749 -0.0531013 23.1904 5.86445 22.4022 9.55804C21.8086 12.3402 19.0862 14.3249 16.3121 13.9981C13.2578 13.6383 11.1206 11.0517 11.3312 7.96971Z" fill="#E39BA6" fill-opacity="0.2"/>
<path d="M28.4335 8.41165C28.4335 5.16263 30.778 1.04697 33.1463 0.1389C36.1326 -1.00617 40.4007 5.18063 39.5592 9.43447C38.9914 12.3049 36.2922 14.3309 33.4772 13.9992C30.6406 13.6651 28.4335 11.2199 28.4335 8.41165Z" fill="#E39BA6" fill-opacity="0.2"/>
<path d="M1.75752 14.1573C2.68425 12.6709 3.13442 12.2091 4.20669 11.6457C5.6605 10.8818 6.95409 11.266 8.51385 12.9244C10.3238 14.849 11.5378 18.4713 11.1208 20.702C10.5947 23.5162 7.7153 25.6241 4.91795 25.2427C2.88219 24.9652 1.06568 23.5224 0.33783 21.605C-0.420371 19.607 0.116701 16.7888 1.75752 14.1573Z" fill="#E39BA6" fill-opacity="0.2"/>
<path d="M40.0408 17.5593C40.7131 14.9472 42.3673 12.4611 43.983 11.635C45.464 10.878 46.7906 11.2877 48.3243 12.976C49.9772 14.7953 51.2427 18.2877 50.9605 20.2511C50.6785 22.2146 49.4884 23.8676 47.7203 24.752C46.3623 25.4312 44.3685 25.4068 42.9068 24.6928C40.3246 23.4315 39.2304 20.7084 40.0408 17.5593Z" fill="#E39BA6" fill-opacity="0.2"/>
<path d="M16.9289 23.4333C18.749 21.623 20.3996 20.6484 22.6303 20.0671C26.2782 19.1165 30.2826 20.1487 33.4012 22.8436C35.4251 24.5927 36.5081 26.2464 37.5873 29.2358C38.4406 31.599 39.2272 32.7147 41.242 34.419C42.172 35.2056 43.1839 36.2419 43.491 36.7221C46.258 41.0472 43.6456 46.1782 37.9374 47.6304C35.1263 48.3455 32.6788 48.0382 29.524 46.5744C26.3657 45.1091 24.3582 45.1123 21.3297 46.5877C20.3644 47.058 19.0442 47.5672 18.3957 47.7193C13.8876 48.7764 8.84638 46.7563 7.01327 43.1579C6.53577 42.221 6.47168 41.8945 6.47168 40.4035C6.47168 38.8683 6.52917 38.5958 7.0949 37.4528C7.57165 36.4898 8.03672 35.9174 9.07165 35.0192C11.9512 32.521 12.45 31.8582 13.3422 29.3438C14.3331 26.5515 15.154 25.1985 16.9289 23.4333Z" fill="#E39BA6" fill-opacity="0.2"/>
</svg>
