<svg width="52" height="31" viewBox="0 0 52 31" fill="none" xmlns="http://www.w3.org/2000/svg">
<path fill-rule="evenodd" clip-rule="evenodd" d="M24.4933 0.125495C22.9416 0.484368 21.9063 0.991237 20.8006 1.93341C19.6121 2.94621 18.6728 4.39732 18.2211 5.91906C17.9791 6.73402 17.9448 7.0237 17.9448 8.24604C17.9448 9.46838 17.9791 9.75806 18.2211 10.573C18.8164 12.5781 20.1297 14.2712 21.9727 15.4096C22.6305 15.8161 23.9054 16.2789 24.6551 16.3834C25.1703 16.4553 25.2404 16.6232 24.7553 16.6232C23.8611 16.6232 22.2181 17.075 20.9387 17.6727C19.589 18.3033 18.4398 19.1389 17.2934 20.3234L16.2503 21.4011L15.8368 21.0209C14.7214 19.995 13.0035 19.1534 11.3062 18.8012C10.7414 18.6841 10.2408 18.5845 10.1936 18.58C10.1465 18.5755 10.4051 18.5066 10.7683 18.4268C13.4677 17.8345 15.5394 15.21 15.5394 12.3829C15.5394 9.0366 12.7346 6.18123 9.44766 6.18123C6.16069 6.18123 3.35595 9.0366 3.35595 12.3829C3.35595 15.2112 5.44307 17.853 8.12702 18.4219L8.78734 18.5619L8.38099 18.6369C6.66568 18.9533 5.47751 19.3925 4.36035 20.1233C2.71971 21.1963 1.27401 22.9518 0.629539 24.6536C0.169347 25.8689 0 26.9665 0 28.7333V30.2715L0.296433 30.6093L0.592866 30.947L25.9451 30.9735L51.2972 31L51.6297 30.6978L51.9621 30.3957L51.9947 28.8415C52.0324 27.0451 51.8717 25.9425 51.3845 24.6562C50.7387 22.9516 49.2941 21.1969 47.6526 20.1233C46.5354 19.3925 45.3472 18.9533 43.6319 18.6369L43.2256 18.5619L43.8859 18.4219C46.5699 17.853 48.657 15.2112 48.657 12.3829C48.657 9.0366 45.8522 6.18123 42.5653 6.18123C39.2783 6.18123 36.4736 9.0366 36.4736 12.3829C36.4736 15.21 38.5452 17.8345 41.2446 18.4268C41.6078 18.5066 41.8664 18.5755 41.8193 18.58C41.7722 18.5845 41.2715 18.6841 40.7067 18.8012C39.0045 19.1544 37.2917 19.9948 36.168 21.0283L35.7464 21.4161L34.9774 20.5653C33.9857 19.4681 32.8357 18.5823 31.5181 17.9007C30.1033 17.1688 28.2834 16.6232 27.2576 16.6232C26.7725 16.6232 26.8426 16.4553 27.3578 16.3834C28.1075 16.2789 29.3824 15.8161 30.0402 15.4096C31.8832 14.2712 33.1965 12.5781 33.7918 10.573C34.0338 9.75806 34.0682 9.46838 34.0682 8.24604C34.0682 7.0237 34.0338 6.73402 33.7918 5.91906C32.9999 3.25182 30.8846 1.10179 28.2922 0.328925C27.1475 -0.0122626 25.4762 -0.101825 24.4933 0.125495ZM27.2763 2.1963C30.0177 2.78229 32.0982 5.39254 32.0982 8.24604C32.0982 11.0995 30.0177 13.7098 27.2763 14.2958C25.2085 14.7377 23.2396 14.1354 21.7305 12.5992C19.3094 10.1343 19.3094 6.35777 21.7305 3.89293C23.2404 2.35578 25.2073 1.75407 27.2763 2.1963ZM10.3945 8.40066C12.0407 8.8372 13.1164 10.0257 13.4328 11.7576C13.6523 12.9592 13.1995 14.3648 12.297 15.2837C11.3944 16.2025 10.0137 16.6634 8.83346 16.44C7.03038 16.0986 5.79782 14.8438 5.46247 13.0082C5.24457 11.8149 5.69572 10.4011 6.58278 9.49796C7.6201 8.44203 9.02505 8.03754 10.3945 8.40066ZM43.5121 8.40066C45.1583 8.8372 46.234 10.0257 46.5504 11.7576C46.7699 12.9592 46.3171 14.3648 45.4146 15.2837C44.512 16.2025 43.1313 16.6634 41.9511 16.44C40.148 16.0986 38.9154 14.8438 38.5801 13.0082C38.3622 11.8149 38.8133 10.4011 39.7004 9.49796C40.7377 8.44203 42.1427 8.03754 43.5121 8.40066ZM28.4446 18.895C29.6538 19.1967 31.3691 20.075 32.3934 20.9168C33.807 22.0788 35.0425 23.8955 35.6436 25.6961C35.8881 26.4285 36.1652 27.9342 36.1652 28.5302V28.9303H26.0065H15.8477V28.5302C15.8477 28.3101 15.9167 27.7273 16.001 27.2352C16.7399 22.9209 20.0102 19.5656 24.2811 18.7399C25.3233 18.5383 27.312 18.6125 28.4446 18.895ZM11.425 20.9213C12.6596 21.2616 14.1181 22.1062 14.8725 22.9175L15.1674 23.2344L14.8546 23.9881C14.2648 25.4092 13.997 26.5247 13.8603 28.1288L13.7921 28.9303H7.91196H2.03175L2.03348 28.0771C2.03927 25.3179 3.53922 22.8449 5.99368 21.5481C6.72724 21.1605 7.47818 20.8916 8.20453 20.7563C8.88405 20.6298 10.7065 20.7231 11.425 20.9213ZM25.6395 20.758C25.3197 20.8895 24.9906 21.3689 24.9906 21.7031C24.9906 22.1171 25.4575 22.614 25.9164 22.6881C26.2257 22.7382 26.337 22.6987 26.6251 22.4366C26.9105 22.177 26.967 22.0539 26.967 21.6908C26.967 21.3309 26.9101 21.2043 26.6374 20.9563C26.3037 20.6527 26.0285 20.598 25.6395 20.758ZM44.6478 20.9704C46.7143 21.6205 48.3426 23.0134 49.2662 24.9211C49.7568 25.9343 49.977 26.909 49.9794 28.0771L49.9812 28.9303H44.101H38.2209L38.1526 28.1288C38.016 26.5247 37.7481 25.4092 37.1584 23.9881L36.8456 23.2344L37.1404 22.9175C38.1044 21.8808 39.8744 20.9897 41.4986 20.7234C42.1865 20.6106 43.9418 20.7482 44.6478 20.9704ZM29.2019 22.1516C29.0125 22.3442 28.9525 22.5151 28.9525 22.8609C28.9525 23.3016 28.9818 23.3439 29.8414 24.1463C30.3352 24.6072 30.8883 25.2406 31.0858 25.5715C31.5913 26.4183 32.0261 26.8619 32.3506 26.8619C33.004 26.8619 33.4941 26.3177 33.3959 25.7012C33.2622 24.8625 31.773 22.9325 30.7026 22.2107C30.1065 21.8088 29.5597 21.7872 29.2019 22.1516Z" fill="white"/>
</svg>
