<svg width="36" height="40" viewBox="0 0 36 40" fill="none" xmlns="http://www.w3.org/2000/svg">
<path fill-rule="evenodd" clip-rule="evenodd" d="M0.349049 0.127617C0.0801504 0.315897 -0.0689861 0.722067 0.0314798 0.992535C0.0765567 1.11394 2.70836 3.80854 5.94858 7.05094C11.442 12.548 11.7693 12.8908 11.5248 12.8908C11.3419 12.8908 11.1975 12.9583 11.0367 13.1191L10.8084 13.3475V16.0332V18.7189L10.0684 19.402C8.15633 21.1672 6.98308 23.1964 6.41974 25.7125C6.26123 26.4205 6.23818 26.7319 6.23818 28.1641C6.23818 29.9886 6.31381 30.509 6.78496 31.9254C7.36518 33.6696 8.27297 35.1243 9.63387 36.4906C10.9238 37.7856 12.1026 38.5677 13.6877 39.1796C14.5244 39.5027 14.7566 39.4941 15.064 39.1289C15.4791 38.6355 15.2332 38.0921 14.4703 37.8175C12.7382 37.194 10.9663 35.8915 9.86543 34.4326C8.43304 32.5342 7.76408 30.5472 7.76244 28.1864C7.76111 26.3603 8.07805 25.036 8.89787 23.442C10.5595 20.2113 13.8224 18.1108 17.4826 17.9154C22.6273 17.6409 27.2289 21.3302 28.11 26.4361C28.3748 27.9701 28.2229 29.9606 27.7288 31.4325C26.7509 34.3456 24.3896 36.7773 21.5346 37.8114C20.9593 38.0198 20.8086 38.1667 20.7543 38.572C20.7209 38.8202 20.7508 38.9189 20.9192 39.1191C21.2349 39.4943 21.4621 39.5044 22.3036 39.1805C25.5069 37.9473 28.1151 35.206 29.2064 31.9254C29.6775 30.509 29.7532 29.9886 29.7532 28.1641C29.7532 26.7294 29.7303 26.4212 29.5706 25.7078C29.0104 23.2052 27.8275 21.1602 25.923 19.402L25.183 18.7189V16.0332V13.3475L24.9546 13.1191C24.7938 12.9583 24.6494 12.8908 24.4665 12.8908C24.2221 12.8908 24.5493 12.548 30.0428 7.05094C33.283 3.80854 35.9148 1.11394 35.9599 0.992535C36.0203 0.829645 36.0135 0.707927 35.9326 0.51449C35.7069 -0.0255853 35.962 0.000195819 30.8508 0.000195819H26.2411L22.1184 4.12025L17.9957 8.24031L13.873 4.12025L9.75027 0.000195819H5.14056C1.00536 0.000195819 0.51217 0.0133208 0.349049 0.127617ZM9.73535 6.5443L14.7164 11.5259L14.187 12.0512L13.6577 12.5765L8.15133 7.06961L2.64492 1.56269H3.69966H4.75432L9.73535 6.5443ZM13.0165 5.45056L16.9037 9.33851L16.3744 9.86374L15.8451 10.3891L11.4325 5.97587L7.01996 1.56269H8.07462H9.12935L13.0165 5.45056ZM23.308 7.22672L17.6445 12.8908H16.5898H15.5352L21.1987 7.22672L26.8622 1.56269H27.9169H28.9715L23.308 7.22672ZM27.6829 7.22672L22.0194 12.8908H20.9647H19.9101L25.5736 7.22672L31.2371 1.56269H32.2918H33.3464L27.6829 7.22672ZM23.6205 16.0862V17.7192L22.857 17.3832C21.1798 16.645 19.8948 16.3752 18.0347 16.3706C15.9318 16.3654 14.3831 16.7377 12.4294 17.7181C12.3972 17.7342 12.3708 17.0063 12.3708 16.1004V14.4533H17.9957H23.6205V16.0862ZM16.7863 19.5351C13.768 20.0085 11.1899 21.9713 10.0191 24.6871C9.52356 25.8366 9.39528 26.4426 9.3495 27.8516C9.31443 28.93 9.33185 29.2129 9.47614 29.9121C10.1086 32.9765 12.3479 35.4832 15.3004 36.4318C16.3231 36.7604 16.8037 36.8317 17.9957 36.8317C19.1877 36.8317 19.6683 36.7603 20.6909 36.4317C23.6845 35.4697 25.9538 32.8847 26.5461 29.762C26.7189 28.851 26.7043 27.3548 26.5135 26.4186C25.8213 23.0231 23.1916 20.3816 19.7643 19.6391C19.0877 19.4925 17.4273 19.4346 16.7863 19.5351ZM19.3645 21.1632C22.2102 21.7506 24.3988 23.9191 24.992 26.7394C25.137 27.4285 25.137 28.8997 24.992 29.5888C24.418 32.3176 22.3426 34.4457 19.5865 35.1316C18.8507 35.3147 17.1409 35.3148 16.4056 35.1318C14.9968 34.7811 14.0115 34.2189 12.9567 33.1639C12.0551 32.2618 11.5808 31.5006 11.1804 30.3125C10.9357 29.5865 10.9302 29.5397 10.9302 28.1641C10.9302 26.7886 10.9357 26.7417 11.1804 26.0157C12.1876 23.0271 14.8691 21.0518 17.9566 21.0241C18.3633 21.0204 18.9569 21.0791 19.3645 21.1632ZM17.6136 38.5466C16.9364 38.922 17.2198 40 17.9957 40C18.3915 40 18.7769 39.6184 18.7769 39.2263C18.7769 38.6398 18.1287 38.261 17.6136 38.5466Z" fill="white"/>
</svg>
