<svg width="35" height="41" viewBox="0 0 35 41" fill="none" xmlns="http://www.w3.org/2000/svg">
<path fill-rule="evenodd" clip-rule="evenodd" d="M16.4151 0.491503C14.4546 1.58572 13.8635 1.89922 12.3654 2.63904C9.07043 4.26629 5.54721 5.63809 1.93574 6.69992C0.663888 7.07388 0.419192 7.1717 0.225762 7.38369L0 7.63105L0.0321713 13.4973C0.0592884 18.4531 0.0852022 19.5066 0.199126 20.2855C0.845925 24.7081 2.22521 28.2526 4.63277 31.6793C7.46378 35.7089 12.1626 39.4305 16.0799 40.7461C17.4574 41.2087 18.4598 41.0636 20.4846 40.1083C24.1482 38.38 27.9192 35.1636 30.3672 31.6793C32.7748 28.2526 34.1541 24.7081 34.8009 20.2855C34.9148 19.5066 34.9407 18.4531 34.9678 13.4973L35 7.63105L34.7742 7.38369C34.5807 7.1717 34.3363 7.07396 33.0643 6.70016C28.1663 5.26061 23.638 3.31632 18.5029 0.448126C18.0616 0.201653 17.6095 0 17.4982 0C17.3868 0 16.8994 0.221216 16.4151 0.491503ZM18.9714 2.67657C23.3265 5.05631 27.7118 6.89363 32.4826 8.33727L33.3049 8.58615L33.3045 12.8122C33.3044 15.1365 33.2671 17.6336 33.2217 18.3612C32.836 24.5476 30.3663 29.9125 25.9527 34.1522C23.6022 36.41 21.0385 38.1196 18.6869 38.9975C17.6721 39.3763 17.3279 39.3763 16.3131 38.9975C13.9615 38.1196 11.3978 36.41 9.04733 34.1522C4.63366 29.9125 2.16399 24.5476 1.77826 18.3612C1.73293 17.6336 1.69562 15.1365 1.69546 12.8122L1.69506 8.58615L2.5174 8.33871C4.0155 7.88802 6.68517 6.97068 7.99024 6.45809C10.6865 5.39916 14.0918 3.79003 16.3768 2.49512C16.9284 2.1825 17.428 1.92624 17.4872 1.92552C17.5463 1.92488 18.2142 2.26284 18.9714 2.67657ZM11.2684 6.95128C11.0303 6.99762 10.7072 7.33558 10.6587 7.58895C10.5971 7.91095 10.7466 8.32573 10.9793 8.47807C11.2438 8.65126 11.7117 8.64324 11.9904 8.46075C12.5016 8.126 12.4163 7.24955 11.8494 7.01286C11.6948 6.94831 11.54 6.90037 11.5055 6.90638C11.471 6.91239 11.3643 6.9326 11.2684 6.95128ZM8.67491 8.01182C8.56459 8.04894 7.89669 8.2951 7.19069 8.55881C6.48468 8.8226 5.43979 9.19295 4.86872 9.38186C4.26236 9.58239 3.75596 9.79967 3.65166 9.90391C3.4028 10.1526 3.36364 10.5364 3.39373 12.4281C3.41627 13.8379 3.4401 14.1012 3.56149 14.2797C3.82183 14.6626 4.25097 14.7659 4.67377 14.5474C5.07764 14.3387 5.14487 14.0445 5.14487 12.4863V11.0964L5.72652 10.9116C7.37008 10.3894 9.43242 9.57116 9.65016 9.35484C10.2783 8.73079 9.54402 7.71956 8.67491 8.01182ZM24.52 12.5356C24.3435 12.5932 24.0546 12.7337 23.8781 12.8479C23.7016 12.962 21.5721 15.0426 19.146 17.4712L14.7348 21.887L13.0085 20.1687C10.9443 18.114 10.7657 18.0004 9.59753 18.0004C8.99269 18.0004 8.81041 18.0324 8.47434 18.1976C7.04146 18.9022 6.44753 20.5124 7.09786 21.9292C7.29073 22.3494 7.6816 22.7725 10.183 25.2688C13.5261 28.605 13.4936 28.5811 14.692 28.5829C16.0451 28.585 15.6035 28.9498 22.0491 22.5073C28.4711 16.0884 28.1302 16.4985 28.1302 15.1941C28.1302 14.5806 28.0986 14.4063 27.9196 14.0315C27.6495 13.4657 27.125 12.9417 26.5658 12.6788C26.0442 12.4335 25.0468 12.3637 24.52 12.5356ZM25.7382 14.1972C26.2697 14.3985 26.5534 14.943 26.4051 15.4773C26.3445 15.6955 25.1328 16.9483 20.7707 21.3025C15.7363 26.3277 15.1837 26.855 14.8973 26.9069C14.6493 26.9517 14.5095 26.926 14.2486 26.7877C14.0536 26.6843 12.8359 25.5275 11.3033 23.9897C8.55561 21.2325 8.43735 21.083 8.5674 20.531C8.65429 20.1621 8.97889 19.8152 9.32411 19.7223C9.93336 19.5583 10.0647 19.6523 12.2451 21.8147C13.3482 22.9087 14.3526 23.8421 14.4769 23.889C14.6014 23.9357 14.7999 23.9517 14.9182 23.9243C15.0616 23.8912 16.724 22.2893 19.9068 19.1172C22.5323 16.5006 24.7887 14.3042 24.9211 14.2363C25.2048 14.0906 25.4285 14.0799 25.7382 14.1972ZM26.8758 27.8237C26.8036 27.8659 26.4985 28.2472 26.1979 28.6711C25.1038 30.2137 23.8412 31.5675 22.2919 32.8591C21.4763 33.5391 21.3215 33.7438 21.3357 34.1227C21.3497 34.4933 21.467 34.6908 21.7642 34.8444C22.1802 35.0594 22.4671 34.9413 23.4159 34.1644C25.4236 32.5205 28.1703 29.3122 28.1703 28.6109C28.1703 28.2814 27.959 27.9098 27.72 27.819C27.4643 27.7218 27.0464 27.7241 26.8758 27.8237ZM19.6973 34.7163C19.1663 34.9307 19.0207 35.6543 19.4189 36.0997C20.044 36.7989 21.2034 36.041 20.8397 35.1711C20.658 34.7365 20.1491 34.5339 19.6973 34.7163Z" fill="white"/>
</svg>
