<svg width="116" height="103" viewBox="0 0 116 103" fill="none" xmlns="http://www.w3.org/2000/svg">
<path d="M60.4241 21.1005L37.8849 22.5391L35.4872 31.6507L37.8849 47.476L41.7214 61.8627L50.8329 64.2605H66.6583L75.7699 60.4241L80.5654 43.6396L82.0041 28.2938L79.1268 22.5391L60.4241 21.1005Z" fill="#E39BA6" stroke="#E39BA6"/>
<path fill-rule="evenodd" clip-rule="evenodd" d="M38.5891 0.506929C38.2868 0.785853 36.8904 2.94019 35.4857 5.29459C32.981 9.49332 32.9322 9.60124 32.9385 10.9271C32.9471 12.7018 33.7473 15.1349 34.9832 17.1439C35.5241 18.0232 35.9667 18.7692 35.9667 18.8017C35.9667 18.8341 34.6768 18.9154 33.1006 18.9826C30.8516 19.0783 29.9191 19.2207 28.77 19.6438C24.4873 21.2201 21.4276 24.7643 18.0555 32.0546C15.8413 36.8411 12.774 44.0395 11.013 48.5812L9.60423 52.2146L7.21874 52.3173C4.36883 52.4401 3.0756 52.9791 1.60097 54.658C0.128131 56.3349 0 57.0753 0 63.9055C0 70.6948 0.158478 71.5027 1.82913 73.2281C3.14484 74.5869 4.42863 75.0915 6.85795 75.2051L8.88288 75.2997L9.39967 77.6679C11.2331 86.0678 14.3298 93.3718 17.8388 97.5719C19.4186 99.4627 21.8648 101.33 23.7762 102.104L25.0643 102.625H57.5467H90.0292L91.3172 102.104C93.2286 101.33 95.6748 99.4627 97.2546 97.5719C100.764 93.3718 103.86 86.0678 105.694 77.6679L106.211 75.2997L108.236 75.2051C110.665 75.0915 111.949 74.5869 113.264 73.2281C114.936 71.5018 115.093 70.6966 115.093 63.8904C115.093 57.1064 114.955 56.3232 113.454 54.6136C112.018 52.9786 110.706 52.4392 107.871 52.3173L105.481 52.2144L104.631 50.0454C102.386 44.3254 95.4012 28.2984 94.4612 26.7122C93.1544 24.5079 90.9146 22.0638 89.1462 20.9127C87.1799 19.6326 85.3645 19.1446 81.9929 18.9893C80.4166 18.9168 79.1268 18.8316 79.1268 18.8001C79.1268 18.7685 79.5694 18.0232 80.1102 17.1439C81.3461 15.1349 82.1464 12.7018 82.1549 10.9271C82.1612 9.60124 82.1124 9.49332 79.6078 5.29459C78.2031 2.94019 76.8067 0.785628 76.5043 0.506929L75.9545 0H57.5467H39.139L38.5891 0.506929ZM75.7917 7.75534C77.6966 10.9355 77.7335 11.0247 77.5283 11.941C77.1349 13.6959 75.6715 16.0872 73.7715 18.0805C73.0219 18.8668 72.8757 18.9254 71.663 18.9254C70.9464 18.9254 70.3599 18.84 70.3599 18.7357C70.3599 18.6313 70.7227 16.8943 71.166 14.8753C72.0553 10.8262 72.0467 9.98718 71.108 9.24706C70.5352 8.79556 70.2758 8.78677 57.4991 8.78677H44.4742L43.8171 9.44533C42.9753 10.2891 42.9822 10.5854 43.9468 14.9666C44.3795 16.9319 44.7336 18.6266 44.7336 18.7327C44.7336 18.8386 44.1471 18.9254 43.4305 18.9254C42.2177 18.9254 42.0716 18.8668 41.3219 18.0805C39.422 16.0872 37.9586 13.6959 37.5652 11.941C37.36 11.0247 37.3968 10.9355 39.3017 7.75534L41.2482 4.50604H57.5467H73.8453L75.7917 7.75534ZM66.4031 15.6022C66.1176 16.8724 65.8269 18.1397 65.7573 18.4184L65.6307 18.9254H57.5467H49.4628L49.3362 18.4184C49.2665 18.1397 48.9759 16.8724 48.6904 15.6022L48.1716 13.2928H57.5467H66.9219L66.4031 15.6022ZM32.5946 24.3328C30.8077 27.8437 31.0725 31.7851 34.0468 45.9377C34.7317 49.1978 35.2923 51.9562 35.2923 52.0675C35.2923 52.1844 30.8729 52.27 24.8427 52.27H14.393L14.8729 50.9745C16.9394 45.3954 19.9444 38.4133 22.7307 32.7161C24.7586 28.5703 25.1072 28.0016 26.4767 26.6077C28.0958 24.9594 29.3439 24.1934 31.1337 23.7488C33.0772 23.2662 33.1274 23.2863 32.5946 24.3328ZM75.6935 24.0764C77.1153 24.7208 78.5562 26.2251 78.8838 27.4068C79.2104 28.5861 79.1812 30.7339 78.8001 33.57C78.208 37.9762 74.6801 54.8986 73.9408 56.8793C73.3379 58.4942 71.9768 59.9905 70.408 60.7626L69.1235 61.3948H57.5467H45.9699L44.6855 60.7626C43.1162 59.9905 41.7555 58.4942 41.152 56.8772C40.4374 54.9633 36.9623 38.3653 36.2958 33.6826C35.6729 29.3086 35.9849 26.8932 37.3541 25.4898C38.1796 24.6433 39.3941 23.9694 40.6275 23.6729C41.0989 23.5598 48.7958 23.4861 57.9963 23.5069L74.5185 23.544L75.6935 24.0764ZM85.6457 24.2657C86.4105 24.6314 87.5 25.4819 88.5015 26.4948C90.0076 28.0181 90.2776 28.4531 92.3596 32.71C95.1434 38.4018 98.7484 46.8065 100.387 51.4252L100.687 52.27H90.2441C84.5004 52.27 79.8011 52.1932 79.8011 52.0993C79.8011 52.0053 80.3575 49.271 81.0373 46.0233C82.8176 37.5193 83.3908 34.0546 83.5455 30.8664C83.6936 27.8158 83.4239 26.1503 82.4827 24.3011L82.0075 23.3679L83.2085 23.5211C83.869 23.6056 84.9657 23.9406 85.6457 24.2657ZM36.644 57.8003C36.8014 58.3635 37.2696 59.3898 37.6848 60.0806C38.0998 60.7716 38.4394 61.3752 38.4394 61.422C38.4394 61.4691 30.8021 61.5074 21.4676 61.5074H4.49584V59.8679C4.49584 58.1103 4.81122 57.3589 5.70005 56.9996C5.96508 56.8923 12.9714 56.7981 21.2698 56.7903L36.3578 56.7761L36.644 57.8003ZM110.055 57.5209C110.523 58.0666 110.598 58.3822 110.598 59.8303V61.5074H93.6258C84.2914 61.5074 76.654 61.4691 76.654 61.422C76.654 61.3752 76.9937 60.7716 77.4087 60.0806C77.8239 59.3898 78.2928 58.3615 78.4508 57.7958L78.7381 56.7671L94.1255 56.8279L109.513 56.8887L110.055 57.5209ZM110.598 67.7206C110.598 69.3069 110.551 69.4743 109.941 70.0862L109.283 70.7448H100.503H91.7223L90.9933 71.3977C90.39 71.938 90.2641 72.2138 90.2641 72.9978C90.2641 73.7819 90.39 74.0576 90.9933 74.5979L91.7223 75.2508H96.6641C99.3821 75.2508 101.606 75.2977 101.606 75.3547C101.606 75.705 100.577 79.7907 99.9872 81.7846C97.6586 89.6519 94.1714 95.4449 90.5558 97.4521L89.3548 98.119H57.5467H25.7387L24.5376 97.4521C22.9517 96.5718 20.3605 93.7736 19.1381 91.6217C17.2 88.21 15.5718 83.8903 14.2675 78.7004C13.8386 76.9931 13.4875 75.5185 13.4875 75.4234C13.4875 75.3286 26.8957 75.2508 43.2837 75.2508C75.6719 75.2508 73.9968 75.3168 74.5871 74.018C74.9267 73.2709 74.9267 72.7247 74.5871 71.9776C73.9945 70.6738 76.0147 70.7448 39.4449 70.7448H5.80997L5.1529 70.0862C4.54237 69.4743 4.49584 69.3069 4.49584 67.7206V66.0134H57.5467H110.598V67.7206ZM81.4549 70.9683C80.2026 71.4748 79.8214 73.4892 80.7934 74.4634C81.8366 75.509 83.3025 75.4284 84.1592 74.2782C85.5151 72.4582 83.5916 70.104 81.4549 70.9683Z" fill="#23212B"/>
</svg>
