<svg width="120" height="90" viewBox="0 0 120 90" fill="none" xmlns="http://www.w3.org/2000/svg">
<path d="M113.665 41.6718C67.2132 73.3944 23.1468 54.8895 6.92008 41.6718L1.99341 68.6218C50.8848 104.713 99.4712 84.6098 117.653 70.0465L113.665 41.6718Z" fill="#E39BA6"/>
<path fill-rule="evenodd" clip-rule="evenodd" d="M47.5753 0.0488683C44.3104 0.6166 42.7277 1.13708 40.1853 2.47865C37.8998 3.68487 34.5994 7.02572 33.4325 9.31446L32.5734 10.9989L30.1624 10.9861C27.1397 10.9697 25.7755 11.2955 22.8247 12.7377C18.8763 14.6674 15.9398 17.598 14.1427 21.4016C13.3277 23.1266 12.6194 25.5379 12.6194 26.5874C12.6194 27.0977 12.3524 27.3351 10.9261 28.0938C9.01357 29.111 6.82214 31.1456 6.11387 32.562C5.54261 33.7041 5.11212 35.644 5.11212 37.0751C5.11212 37.6512 4.00174 43.9767 2.64479 51.1321C1.28784 58.2873 0.11342 64.8897 0.0350625 65.8039C-0.142298 67.8746 0.361161 70.0356 1.36503 71.5123C2.13687 72.6477 4.82684 75.0137 7.81006 77.1811C17.0128 83.8673 30.8432 88.1268 48.5138 89.7172C50.6036 89.9053 55.1727 90.0138 60.3612 89.9986C69.4765 89.972 74.6078 89.5833 82.2967 88.3372C97.8692 85.8131 110.558 80.8496 117.435 74.5922C119.748 72.4868 120.299 70.87 119.863 67.466C119.729 66.4212 118.828 59.3691 117.86 51.7946C115.776 35.4814 115.773 35.4636 114.921 32.9982C113.631 29.2696 111.353 26.108 108.256 23.7518C106.795 22.6394 103.509 20.8609 102.001 20.3666C101.275 20.1284 101.116 19.9214 100.648 18.5988C98.9427 13.787 94.7715 9.20713 90.0177 6.92766C87.0216 5.49088 84.9918 5.05991 81.2409 5.06419C78.3685 5.06727 77.698 5.14658 75.8948 5.69745C73.3801 6.46535 70.8996 7.70173 69.0976 9.08532C68.3542 9.6559 67.6515 10.123 67.5363 10.123C67.4209 10.123 67.061 9.66421 66.7366 9.10384C65.8685 7.60509 63.2616 4.84954 61.5237 3.5944C58.3307 1.28833 54.9208 0.160468 50.7425 0.0284483C49.3231 -0.0164288 47.8979 -0.00716881 47.5753 0.0488683ZM53.157 5.03522C57.8235 5.99901 61.8594 9.29974 64.0234 13.9221C64.9189 15.8349 65.499 16.4858 66.4738 16.6707C67.4681 16.8595 68.0473 16.528 69.7027 14.8227C75.061 9.30282 82.9491 8.14979 89.3071 11.957C92.9718 14.1517 95.7174 17.83 96.835 22.0427C96.9979 22.6565 97.3197 23.3316 97.5503 23.5427C97.781 23.754 98.9563 24.2977 100.162 24.751C106.713 27.2133 110.484 31.6611 111.368 37.9674L111.576 39.4474L109.878 41.1478C104.432 46.6019 92.9502 51.4394 80.0916 53.6975C65.0772 56.3341 47.0796 55.787 32.8866 52.2628C19.2493 48.8769 10.3726 43.0901 9.8802 37.2651C9.6653 34.723 11.1438 32.9991 14.7273 31.6132C16.6788 30.8583 16.9446 30.4701 17.1567 28.066C17.6334 22.6622 21.4088 17.9506 26.6956 16.1617C28.2825 15.6248 31.0771 15.6224 32.5316 16.1569C34.7134 16.9583 35.8372 16.3989 36.4558 14.2032C38.0307 8.61328 43.3827 4.78329 49.7553 4.68594C50.6318 4.67264 52.1625 4.82983 53.157 5.03522ZM81.7437 13.4633C80.2561 13.8936 79.5863 15.3695 80.2706 16.7092C80.6502 17.4519 81.1002 17.6906 83.2658 18.2975C85.8661 19.0264 87.91 21.0447 88.7499 23.7134C89.2524 25.3102 90.0128 26.0318 91.1931 26.0318C93.2205 26.0318 93.971 24.4072 93.0901 21.9261C91.7174 18.0608 88.9887 15.2705 85.3704 14.0323C83.3782 13.3505 82.5714 13.224 81.7437 13.4633ZM74.7199 15.2508C73.442 15.952 73.2276 17.8392 74.3021 18.9267C75.2365 19.8725 76.3781 19.8746 77.4195 18.9327C78.0492 18.3633 78.1805 18.0726 78.1805 17.2463C78.1805 16.42 78.0492 16.1294 77.4195 15.56C76.5686 14.7904 75.7334 14.6947 74.7199 15.2508ZM52.9013 15.3793C51.5948 15.5752 50.0875 16.3077 49.138 17.2083C46.0758 20.1123 46.4255 25.5659 49.8303 28.0033C51.2994 29.0549 52.1259 29.3173 54.0269 29.3356C56.7101 29.3612 59.0017 27.9568 60.2993 25.4911C61.0622 24.0418 61.0622 20.661 60.2993 19.2116C58.8347 16.4286 55.9322 14.925 52.9013 15.3793ZM55.6483 20.8263C56.037 21.2936 56.2557 21.843 56.2557 22.3514C56.2557 22.8598 56.037 23.4092 55.6483 23.8765C55.1446 24.4825 54.8699 24.6071 54.038 24.6071C51.8944 24.6071 50.9255 22.231 52.4429 20.695C53.341 19.7863 54.8344 19.8473 55.6483 20.8263ZM28.4312 29.9247C27.0194 30.59 25.7321 31.8259 24.998 33.2209C24.5633 34.047 24.4702 34.6 24.4702 36.3607C24.4702 38.1213 24.5633 38.6743 24.998 39.5004C27.0112 43.3259 31.7919 44.5893 35.2528 42.2106C36.4673 41.3757 37.6408 39.7991 37.9796 38.547C38.9255 35.0507 37.5458 31.7435 34.4685 30.1313C32.5401 29.121 30.2996 29.0443 28.4312 29.9247ZM76.5031 29.857C69.9854 30.6924 67.2513 39.1153 71.964 43.8402C75.2149 47.0994 80.2495 47.0994 83.4697 43.8402C86.6896 40.5812 86.6896 35.4643 83.4697 32.2054C81.6067 30.3198 79.2065 29.5108 76.5031 29.857ZM32.8807 34.7308C33.9397 35.8027 33.7035 37.6963 32.4247 38.3891C30.9023 39.2138 29.0417 38.0859 29.0417 36.3386C29.0417 34.3851 31.5153 33.3491 32.8807 34.7308ZM79.7259 35.13C81.1009 36.1047 81.5738 38.3626 80.7131 39.8428C79.4291 42.0508 75.9898 42.0596 74.7194 39.8582C73.8636 38.3751 74.3162 36.01 75.6213 35.1445C76.8456 34.3324 78.5923 34.3262 79.7259 35.13ZM10.417 47.0614C14.0071 50.2301 17.9473 52.3562 24.7015 54.7688C39.5392 60.0688 61.4277 61.5662 79.9506 58.5482C92.3893 56.5217 104.457 51.8136 111.145 46.3785C111.722 45.9098 112.218 45.5512 112.248 45.5814C112.292 45.6265 114.837 64.9873 115.305 68.8394C115.439 69.9459 115.415 70.0021 114.377 71.0089C111.212 74.0786 104.289 77.7039 97.194 80.0076C86.977 83.3247 75.652 85.0317 62.0035 85.3117C43.9599 85.6818 27.8921 82.6938 16.3118 76.8144C13.3845 75.3283 10.6987 73.5586 7.69674 71.1381C4.94883 68.9225 4.51529 68.1802 4.73182 66.0615C4.86602 64.7468 6.52842 55.4688 6.66472 55.2734C6.69663 55.2278 7.76689 55.8941 9.04337 56.7541C11.8199 58.6249 16.7848 61.1737 17.6526 61.1737C18.7447 61.1737 19.6153 60.5404 19.9149 59.528C20.3846 57.9413 19.8415 57.3473 16.1819 55.4441C12.9716 53.7749 10.4451 52.1268 8.68466 50.5535L7.68243 49.6576L8.08572 47.5799C8.30765 46.4374 8.52536 45.5023 8.56994 45.5023C8.61451 45.5023 9.44571 46.2039 10.417 47.0614ZM22.8235 59.6099C22.1286 60.3134 21.8663 61.277 22.149 62.09C22.4481 62.9512 23.8283 63.848 24.5783 63.6685C25.9977 63.3287 26.9014 62.0356 26.5917 60.7871C26.1835 59.1409 23.97 58.4495 22.8235 59.6099Z" fill="#23212B"/>
</svg>
