<svg width="76" height="121" viewBox="0 0 76 121" fill="none" xmlns="http://www.w3.org/2000/svg">
<path d="M43.2063 17.7552C39.605 10.9542 34.2029 14.9214 31.952 17.7552V78.9649C20.5477 87.8063 25.6996 99.6515 29.7012 104.469C41.7058 111.27 48.2082 102.769 49.9589 97.6679C53.5603 89.5066 46.9578 81.2319 43.2063 78.1148V17.7552Z" fill="#E39BA6"/>
<path fill-rule="evenodd" clip-rule="evenodd" d="M34.9483 0.170032C27.5547 1.59575 21.4681 7.95424 19.9745 15.8127C19.6703 17.4137 19.6281 20.9236 19.6281 44.6374V71.6392L18.2824 73.1947C15.5758 76.3238 13.4433 80.5913 12.2564 85.254C11.7194 87.3634 11.6722 87.9133 11.6617 92.1581C11.6519 96.1815 11.7129 97.0369 12.1405 98.8609C14.7232 109.881 22.5895 118.113 32.7509 120.431C41.0609 122.327 50.2816 119.399 56.4121 112.919C61.7227 107.305 64.4643 100.275 64.4643 92.2714C64.4643 85.1121 62.0003 78.1457 57.7161 73.1931L56.3719 71.6392V68.6357V65.6319L55.7326 64.9406C54.6119 63.7287 52.7402 64.1452 52.2327 65.7192C51.9136 66.7088 51.9259 72.8835 52.2481 73.5481C52.3858 73.8321 53.18 74.8444 54.0131 75.7973C56.5709 78.7242 58.194 81.8022 59.3613 85.9415C59.8971 87.8412 59.9487 88.3734 59.964 92.1581C59.9787 95.7879 59.9181 96.5445 59.4732 98.3075C58.4488 102.365 56.6647 105.747 53.9011 108.871C50.4238 112.801 46.5073 115.034 41.5057 115.938C37.4646 116.669 32.6601 116.003 28.9916 114.205C23.0385 111.286 18.2808 105.248 16.5585 98.4258C15.8796 95.7366 15.719 90.6025 16.2284 87.8776C17.0709 83.3739 19.0046 79.2741 21.8351 75.9906C22.7485 74.9312 23.6096 73.8321 23.7489 73.5481C23.9368 73.1649 24.0024 65.8873 24.0024 45.3933C24.0024 14.5608 23.9033 16.6131 25.5694 12.9334C27.8003 8.00674 32.8327 4.65555 38 4.65555C43.1673 4.65555 48.1997 8.00674 50.4305 12.9334C52.039 16.4856 51.9976 15.9584 51.9985 32.9014C51.9992 47.4174 52.0167 48.0789 52.4189 48.7922C53.0079 49.8367 54.1362 50.2177 55.1303 49.7075C55.5392 49.4978 55.9859 49.06 56.1228 48.735C56.3008 48.3126 56.3719 43.793 56.3719 32.8899C56.3719 16.1176 56.3465 15.7287 55.0235 12.282C52.8342 6.57772 48.3876 2.34408 42.7736 0.618703C40.9141 0.0472807 36.8063 -0.188289 34.9483 0.170032ZM35.8116 11.9504C33.8364 12.6479 31.9727 14.4556 31.0843 16.536L30.4544 18.0104L30.345 47.7549L30.2357 77.4991L29.2718 78.1892C26.2052 80.3846 23.7511 84.1352 22.7625 88.1373C22.1765 90.5105 22.2314 94.6271 22.8795 96.8801C24.6299 102.965 28.8545 107.38 34.2959 108.81C36.165 109.301 39.8295 109.302 41.7041 108.812C47.1313 107.393 51.3715 102.961 53.1205 96.8801C53.7686 94.6271 53.8234 90.5105 53.2375 88.1373C52.2489 84.1352 49.7948 80.3846 46.7282 78.1892L45.7643 77.4991L45.655 47.7549L45.5456 18.0104L44.9157 16.536C44.2154 14.896 42.7787 13.2839 41.2571 12.4305C40.5071 12.0098 39.865 11.8769 38.3281 11.8243C37.2454 11.7872 36.1129 11.844 35.8116 11.9504ZM39.5247 16.8243C39.87 17.0175 40.3818 17.523 40.662 17.9477L41.1713 18.72V32.7926V46.8653H38H34.8287V32.782C34.8287 19.6062 34.854 18.6568 35.2232 18.0478C36.0981 16.6041 38.1085 16.0324 39.5247 16.8243ZM6.52939 17.9858C5.23067 18.7642 5.06773 20.4056 6.17048 21.5981L6.92919 22.4186L10.431 22.3431C13.9193 22.2679 13.9352 22.2651 14.5336 21.6173C15.4279 20.6492 15.3822 19.2656 14.4251 18.3411L13.7159 17.6556L10.384 17.6639C8.04003 17.6698 6.89704 17.7654 6.52939 17.9858ZM61.5749 18.3411C60.618 19.2656 60.5721 20.6492 61.4664 21.6173C62.0613 22.2613 62.1 22.2684 65.3687 22.3443C69.008 22.4288 69.6357 22.2826 70.2184 21.2159C70.67 20.3893 70.6864 19.7296 70.2766 18.8725C69.7751 17.824 69.1216 17.6556 65.5511 17.6556H62.2841L61.5749 18.3411ZM1.10377 32.6027C0.444353 32.9473 -0.119927 34.3049 0.0495758 35.1391C0.124157 35.5069 0.434292 36.0608 0.738303 36.3697L1.29143 36.9317H7.59889H13.9064L14.4595 36.3697C14.7635 36.0608 15.0736 35.5069 15.1482 35.1391C15.3251 34.268 14.7429 32.9402 14.0301 32.589C13.3069 32.2326 1.78856 32.2449 1.10377 32.6027ZM61.906 32.6027C61.2466 32.9473 60.6823 34.3049 60.8518 35.1391C60.9264 35.5069 61.2365 36.0608 61.5405 36.3697L62.0936 36.9317H68.4011H74.7086L75.2617 36.3697C75.5657 36.0608 75.8758 35.5069 75.9504 35.1391C76.1274 34.268 75.5452 32.9402 74.8324 32.589C74.1091 32.2326 62.5908 32.2449 61.906 32.6027ZM6.17595 47.5162C5.79495 47.8705 5.56311 48.3736 5.48306 49.02C5.3783 49.8634 5.4496 50.0968 6.02482 50.7934L6.68708 51.5956L9.84639 51.6716C13.4906 51.7593 14.3363 51.5273 14.9352 50.2749C15.2374 49.6427 15.2591 49.354 15.0577 48.6269C14.643 47.1305 14.2126 46.9836 10.2434 46.9836C6.93357 46.9836 6.71814 47.0117 6.17595 47.5162ZM61.5683 47.5389C60.3691 48.7407 60.6982 50.7104 62.2126 51.3946C62.8145 51.6666 63.7206 51.7302 66.1536 51.6716L69.3129 51.5956L69.9752 50.7934C70.5504 50.0968 70.6217 49.8634 70.5169 49.02C70.4369 48.3736 70.2051 47.8705 69.8241 47.5162C69.281 47.0108 69.0691 46.9836 65.6869 46.9836C62.2496 46.9836 62.1026 47.0035 61.5683 47.5389ZM41.2807 65.6839C41.2807 74.5942 41.3603 79.8148 41.5005 80.0982C41.6214 80.3425 42.3351 80.8914 43.0862 81.3179C47.4169 83.7772 49.9977 89.2747 49.1708 94.2792C48.4046 98.9151 45.2462 102.738 41.0769 104.076C39.3917 104.617 36.4331 104.576 34.6718 103.987C30.704 102.662 27.572 98.7734 26.8233 94.243C26.029 89.437 28.3285 84.263 32.3966 81.7015C34.9544 80.0911 34.7088 81.784 34.7145 65.7275L34.7193 51.7139H38H41.2807V65.6839ZM52.8198 55.344C51.5908 56.5755 51.9773 58.5844 53.5695 59.2398C55.6687 60.1038 57.3331 57.2108 55.7326 55.4799C54.901 54.5807 53.6399 54.5218 52.8198 55.344ZM0.70834 62.2185C-0.07006 63.0603 -0.20435 63.9413 0.292785 64.9446C0.935145 66.2409 1.50773 66.3512 7.59889 66.3512C13.69 66.3512 14.2626 66.2409 14.905 64.9446C15.4021 63.9413 15.2678 63.0603 14.4894 62.2185L13.9615 61.6476H7.59889H1.23631L0.70834 62.2185ZM61.5106 62.2185C60.7322 63.0603 60.5979 63.9413 61.095 64.9446C61.7374 66.2409 62.31 66.3512 68.4011 66.3512C74.4923 66.3512 75.0649 66.2409 75.7072 64.9446C76.2044 63.9413 76.0701 63.0603 75.2917 62.2185L74.7637 61.6476H68.4011H62.0385L61.5106 62.2185Z" fill="#23212B"/>
</svg>
