<svg width="117" height="99" viewBox="0 0 117 99" fill="none" xmlns="http://www.w3.org/2000/svg">
<path d="M62.5105 58.0454L61.8726 65.0619L64.4241 65.6998L71.4406 66.3376L81.6464 65.6998V63.7862V62.5105L78.4571 57.4076L75.9056 52.3047V49.1154V42.7367L74.6299 38.2717L71.4406 36.996L64.4241 38.2717L60.5969 41.461L54.8562 46.5639L51.029 52.3047L56.1319 58.0454H62.5105Z" fill="#E39BA6"/>
<path fill-rule="evenodd" clip-rule="evenodd" d="M25.8736 0.109744C17.9211 1.12172 12.918 9.27373 15.6449 16.7759C15.9538 17.6259 16.1858 18.3326 16.1604 18.3461C16.1349 18.3597 15.1905 18.5295 14.0614 18.7233C7.4625 19.8561 2.58351 24.1741 0.532679 30.6959L0 32.39V48.142V63.8939L0.531317 65.5937C1.27802 67.9826 2.23353 69.6713 3.81137 71.3909C5.87853 73.6437 8.35786 75.1833 11.0199 75.8671C11.5884 76.0133 12.0991 76.1983 12.1547 76.278C12.2103 76.358 10.4593 77.7007 8.26345 79.2621C2.2905 83.509 1.38492 84.795 1.36971 89.0516C1.36245 91.1413 1.41851 91.438 2.09009 92.8536C4.22081 97.3457 9.77342 99.371 14.1667 97.2585C14.7396 96.9831 20.2783 93.1133 26.4749 88.6593C38.6148 79.9329 39.7344 78.9779 41.288 76.0258C43.5894 71.6524 43.5762 66.2852 41.2535 61.8901C40.2403 59.9731 37.6105 57.2368 35.7031 56.1151C33.9852 55.1052 31.5021 54.292 29.5949 54.115L28.0298 53.9697V46.8628C28.0298 42.954 28.0665 39.7561 28.1117 39.7561C28.1566 39.7561 29.2547 40.2522 30.5515 40.8585C31.8484 41.4647 33.4507 42.0767 34.1121 42.2183C34.7737 42.36 37.0805 42.4758 39.2387 42.4758C41.3967 42.4758 45.9239 42.5429 49.2988 42.6249L55.4349 42.7738L54.9831 43.8148C54.4143 45.1246 53.5675 46.0403 52.7611 46.2171C50.9048 46.6243 49.3158 48.3697 49.0162 50.3309C48.844 51.4573 49.802 55.2396 50.6068 56.611C51.4127 57.9845 52.9924 59.3913 54.5446 60.1179C55.6628 60.6413 56.1238 60.7208 58.0427 60.7208C59.8979 60.7208 60.2379 60.7754 60.1587 61.0608C60.1067 61.2478 59.9962 61.9363 59.9129 62.5907L59.7617 63.7805H52.3918C47.4112 63.7805 44.8613 63.8626 44.5263 64.0337C43.7605 64.4249 43.2466 65.1855 43.243 65.9337C43.2412 66.3077 45.218 73.4323 47.6363 81.7663C51.3617 94.606 52.1242 97.0105 52.6329 97.5182L53.2327 98.1174H61.4651C70.6343 98.1174 70.7099 98.1054 71.1039 96.5864C71.3645 95.5826 71.2065 94.9469 70.5288 94.2699L69.9557 93.6978H62.946H55.9363L55.7189 93.1879C55.5993 92.9073 53.9542 87.3234 52.0634 80.779C50.1724 74.2346 48.5762 68.7527 48.5165 68.5968C48.4302 68.3722 51.1361 68.3135 61.5831 68.3135H74.7582L74.8279 74.8296C74.8949 81.1079 74.9164 81.3839 75.421 82.3964C76.2614 84.0835 77.3955 85.2285 79.0138 86.0241C80.2997 86.6562 80.7366 86.755 82.2384 86.7525C84.9638 86.7482 87.3235 85.4617 88.5584 83.3073C88.8911 82.727 89.1916 82.2141 89.2264 82.1677C89.2611 82.1212 89.9551 82.2631 90.7686 82.4829C94.3178 83.4423 98.0434 81.6885 99.5996 78.3258C100.04 77.3748 100.098 76.8068 100.164 72.7897L100.238 68.3135H105.466H110.694L110.549 69.0501C110.469 69.4551 108.846 75.1412 106.943 81.6856L103.483 93.5845L96.008 93.6444L88.5332 93.7042L87.9 94.31C86.6109 95.5434 87.3131 97.7301 89.114 98.0898C89.5023 98.1673 93.2831 98.2308 97.5157 98.2308C105.443 98.2308 106.231 98.1519 106.951 97.2854C107.292 96.8745 116.091 66.6272 116.091 65.8655C116.091 65.5493 115.768 64.9992 115.319 64.5511L114.548 63.7805L99.7156 63.7794L84.8837 63.7781L81.5249 58.3204L78.1661 52.8625L78.832 51.8055C80.2289 49.5889 80.4118 47.707 79.5628 44.289C78.8349 41.358 78.1897 39.9804 76.8987 38.602C74.0068 35.5132 70.9473 34.5677 66.6655 35.4391C65.4058 35.6955 64.2288 35.9613 64.0502 36.0298C63.7944 36.1279 63.7016 35.8276 63.6121 34.6121C63.4099 31.8636 61.7293 29.4019 59.237 28.2034C58.2016 27.7055 57.705 27.6436 53.563 27.4949C51.0664 27.4052 46.4193 27.3157 43.2362 27.296L37.4487 27.2599L34.5195 25.8504L31.5906 24.4411L33.133 23.6828C37.9718 21.3039 40.8424 15.4519 39.7573 10.1787C39.2001 7.47166 38.2394 5.71448 36.2199 3.71024C33.3155 0.827532 29.8128 -0.391597 25.8736 0.109744ZM30.4587 5.12316C32.9523 6.03926 35.113 8.88118 35.4283 11.6601C35.7174 14.2101 34.4265 17.253 32.4001 18.7983C30.7889 20.0267 29.1296 20.5455 27.1219 20.4483C24.0364 20.2989 21.6015 18.7194 20.2588 15.9961C19.5997 14.6588 19.5194 14.2862 19.5192 12.564C19.5187 10.9131 19.6138 10.4264 20.1724 9.21911C21.9774 5.31603 26.2987 3.59533 30.4587 5.12316ZM27.368 27.4202L36.0869 31.6775L46.4098 31.869C57.8995 32.082 57.8637 32.0768 58.7055 33.6445C59.5273 35.1746 58.9762 36.9966 57.4529 37.786C56.6492 38.2024 56.213 38.211 45.6717 38.0188L34.7251 37.8191L27.9828 34.708C21.3394 31.6426 20.3585 31.3139 19.3927 31.8302C18.7032 32.1988 18.2096 33.3551 18.3723 34.2209C18.5507 35.1712 19.1224 35.6191 21.5516 36.7117L23.4905 37.5836V45.8093V54.0348H13.9581H4.42575L4.42916 44.0057C4.43279 33.2046 4.50428 32.3882 5.65566 30.0046C7.76958 25.6292 12.2934 22.8492 16.9277 23.0778C18.6388 23.1624 18.7003 23.188 27.368 27.4202ZM70.8978 39.8821C72.1881 40.2649 73.6877 41.4545 74.2512 42.5429C74.4414 42.9101 74.8436 44.1811 75.1448 45.3671C75.5869 47.1073 75.6486 47.6869 75.4645 48.3691C74.8216 50.7536 71.8574 51.5276 70.1566 49.755C69.6273 49.2033 69.3375 48.3566 68.3976 44.6174C67.7787 42.1551 67.3538 40.0625 67.4535 39.9673C67.6394 39.7901 68.4065 39.6151 69.2388 39.5602C69.497 39.5432 70.2435 39.6881 70.8978 39.8821ZM66.0563 51.9115C67.5974 54.1458 70.5892 55.5719 73.0951 55.2666L74.2435 55.1265L76.7264 59.1522C78.0923 61.3663 79.2913 63.3137 79.3912 63.4793C79.5408 63.7275 78.2296 63.7805 71.9441 63.7805H64.3157L64.4744 62.704C64.6414 61.5698 64.9233 60.5894 65.6505 58.6135C66.1707 57.1994 66.0899 56.5204 65.3087 55.74C64.5754 55.008 63.7535 55.0068 60.9392 55.7346C58.2572 56.4281 57.2225 56.4395 56.0809 55.7876C54.8634 55.0923 54.405 54.3956 53.9163 52.4981L53.4976 50.8728L54.7786 50.2892C56.5573 49.4787 57.8639 48.1286 58.9408 45.9888C60.077 43.7317 60.7295 42.857 61.9201 41.9958L62.8541 41.3201L64.047 46.0237C65.0506 49.9821 65.3693 50.9152 66.0563 51.9115ZM31.0472 59.023C32.8368 59.5751 35.0147 60.986 36.0787 62.2826C36.5107 62.8089 37.1999 63.9478 37.6103 64.8134C38.3193 66.3086 38.3565 66.5168 38.3565 68.9934C38.3565 71.526 38.3331 71.6481 37.5333 73.2997C37.0808 74.2346 36.3366 75.4279 35.8797 75.9517C35.423 76.4752 29.9782 80.5494 23.7801 85.0051C11.4016 93.9039 11.3456 93.936 9.17606 93.3742C7.90712 93.0456 6.70536 92.0479 6.13682 90.8512C5.66383 89.8562 5.70491 88.1219 6.22874 86.9698C6.72601 85.8763 6.5887 85.9819 17.7112 78.1139C21.9599 75.1083 25.6317 72.4334 25.8705 72.1699C26.7824 71.1638 26.1476 69.1602 24.772 68.7022C23.8398 68.3919 23.3212 68.6099 20.8628 70.3458L18.6109 71.936L16.4547 71.9339C12.3646 71.9301 9.90007 71.0482 7.5728 68.7554C5.40691 66.6218 4.42575 64.0666 4.42575 60.5599V58.5677H16.9983C28.9487 58.5677 29.6437 58.5901 31.0472 59.023ZM95.6219 72.3772C95.557 76.0947 95.51 76.4956 95.0727 77.0801C93.5936 79.0558 90.2788 78.2954 89.8773 75.8882C89.557 73.9683 88.799 73.073 87.4937 73.073C86.8319 73.073 85.7704 73.6553 85.5462 74.1412C85.4436 74.364 85.3036 75.8912 85.235 77.5348C85.1131 80.4637 85.0972 80.5374 84.4393 81.223C84.0698 81.6076 83.3896 82.0355 82.9273 82.1738C82.2044 82.39 81.9436 82.3562 81.0664 81.9322C79.3858 81.1197 79.3231 80.8384 79.3231 74.1154V68.3135H87.508H95.693L95.6219 72.3772ZM77.6633 94.3336C76.4963 95.55 77.1114 97.7457 78.7046 98.0499C80.9275 98.4742 82.3533 95.8791 80.7675 94.2953C79.9096 93.4388 78.5054 93.456 77.6633 94.3336Z" fill="#23212B"/>
</svg>
