<svg width="117" height="75" viewBox="0 0 117 75" fill="none" xmlns="http://www.w3.org/2000/svg">
<path d="M34.6429 36.7106L30.5296 39.6498L31.7048 47.8793L36.4058 54.3454L42.2821 56.6967H74.0139L81.653 54.9332L85.1787 50.8184L86.354 40.8254L84.5911 38.4741L83.4159 37.2985L77.5396 36.7106L70.4881 34.3593L64.6118 32.008L56.9727 29.6567L52.2717 32.008L45.8078 35.535L34.6429 36.7106Z" fill="#E39BA6"/>
<path fill-rule="evenodd" clip-rule="evenodd" d="M57.3183 0.291821C55.2786 1.42594 56.1767 4.55254 58.5418 4.55254C59.2924 4.55254 60.4244 3.53682 60.6077 2.69906C61.0183 0.82315 59.0082 -0.648083 57.3183 0.291821ZM44.1674 0.690776C34.3501 1.76947 23.8044 3.9967 15.4051 6.76557C11.3473 8.10328 7.51548 9.57223 6.04883 10.3525C4.29569 11.2853 2.36564 13.2258 1.42904 14.9973C-0.0330524 17.763 0.00369953 17.088 4.71662e-05 41.2111C-0.00223556 55.7675 0.0783448 63.553 0.240875 64.4568C1.06836 69.0626 5.20832 73.1648 9.81236 73.9415C10.8615 74.1183 25.3717 74.1723 59.3476 74.1261L107.399 74.0605L108.969 73.4484C112.975 71.8871 115.897 68.455 116.625 64.4568C116.967 62.5763 116.968 20.2742 116.626 18.4166C116.117 15.6534 114.405 12.8539 112.256 11.2716C108.958 8.84256 96.6139 4.85691 85.4849 2.62784C78.638 1.25646 68.8698 0.12326 67.6389 0.557485C66.6989 0.889108 66.0766 2.11094 66.3325 3.12252C66.6953 4.55666 67.2563 4.774 71.8136 5.2451C83.7304 6.47723 94.4211 8.92868 104.958 12.8456C108.207 14.0533 108.835 14.3707 109.893 15.3408C111.517 16.8301 112.126 18.2519 112.26 20.8703L112.363 22.8743H104.435C95.6113 22.8743 94.9212 22.9594 92.2139 24.3833C90.2373 25.4228 88.63 26.8677 87.3423 28.7626C86.1147 30.5691 85.4684 32.2728 85.1205 34.6198L84.8724 36.2947L83.3144 35.8978C82.4577 35.6795 80.2843 35.4061 78.4846 35.29C74.575 35.038 73.6822 34.7186 70.7779 32.5314C68.466 30.7904 66.3095 29.7083 63.7989 29.0294C61.2089 28.3291 56.3648 28.3263 53.7549 29.0235C51.3848 29.6567 48.1492 31.2752 46.5643 32.6205C45.8738 33.2066 44.6411 33.999 43.825 34.381C42.5068 34.9982 41.9849 35.0987 39.1454 35.2817C37.3877 35.3951 35.0868 35.6919 34.0321 35.9411C32.9775 36.1902 32.0811 36.3606 32.0402 36.3194C31.9991 36.2782 31.864 35.527 31.74 34.6498C30.952 29.0757 27.0577 24.6476 21.6826 23.2143C20.6966 22.9517 18.7184 22.8791 12.4674 22.877L4.50753 22.8743L4.60728 20.7558C4.68855 19.0242 4.81752 18.4283 5.31379 17.4922C6.54235 15.1741 7.49608 14.496 11.7776 12.8967C22.1686 9.01479 33.3758 6.43326 44.9664 5.25151C49.4034 4.79919 49.4198 4.79553 50.0455 4.09884C50.9166 3.1294 50.9017 1.99826 50.006 1.09958C49.3823 0.474121 49.2292 0.43221 47.6662 0.46015C46.7463 0.47664 45.1719 0.580387 44.1674 0.690776ZM22.1391 28.2297C24.4011 29.4197 25.8999 31.0313 26.7436 33.1802C27.1974 34.3363 27.2499 35.0041 27.3841 41.3105C27.5186 47.6344 27.5713 48.2995 28.0459 49.6698C28.5764 51.201 29.8979 53.5663 30.9568 54.88L31.5567 55.6243H18.0594H4.56208V41.5287V27.4332L12.7228 27.5012L20.8836 27.5692L22.1391 28.2297ZM112.307 41.5395V55.6243H98.8254C88.1025 55.6243 85.3783 55.5657 85.5123 55.338C85.6049 55.1807 86.0099 54.6395 86.4123 54.1357C87.2987 53.0254 88.3721 50.9177 88.9195 49.2117C89.2505 48.1804 89.3518 46.7271 89.4785 41.196C89.6497 33.7262 89.7061 33.4031 91.2271 31.1742C92.2054 29.7405 93.8088 28.5043 95.4654 27.9061C96.5584 27.5117 97.3964 27.4705 104.489 27.4629L112.307 27.4547V41.5395ZM61.8111 33.3085C64.1224 33.7777 66.0467 34.6929 68.2923 36.3906C71.6956 38.9635 73.3282 39.5543 77.8021 39.8321C80.8363 40.0204 82.7278 40.3447 84.2864 40.9434L84.9142 41.1845V43.9458C84.9142 47.0452 84.5092 48.6992 83.2743 50.6436C81.8078 52.953 78.9677 54.8763 76.2647 55.3905C74.6006 55.7072 42.2684 55.7072 40.6043 55.3905C37.8324 54.8633 35.0902 52.9897 33.5381 50.5629C32.373 48.7413 31.9548 47.0253 31.9548 44.0649V41.4781L33.1533 41.0045C35.1084 40.2318 36.0718 40.057 39.5196 39.8496C41.8929 39.7069 43.2073 39.5124 44.2816 39.1455C45.9742 38.5673 47.8974 37.5199 48.9361 36.611C52.393 33.5854 57.1569 32.3633 61.8111 33.3085ZM112.259 62.0942C112.123 64.5445 111.493 66.0114 109.943 67.4819C109.296 68.0955 108.254 68.796 107.627 69.0388C106.513 69.4696 105.333 69.4801 58.4345 69.4801C11.5361 69.4801 10.3557 69.4696 9.24236 69.0388C8.61507 68.796 7.57255 68.0955 6.92585 67.4819C5.37633 66.0114 4.74561 64.5445 4.60956 62.0942L4.50479 60.2048H58.4345H112.364L112.259 62.0942Z" fill="black"/>
</svg>
