<svg width="27" height="27" viewBox="0 0 27 27" fill="none" xmlns="http://www.w3.org/2000/svg">
<path fill-rule="evenodd" clip-rule="evenodd" d="M12.9898 0.0301318C12.0402 0.232837 11.2771 0.934839 10.9673 1.89069L10.9035 2.08753L6.03294 2.10178C1.17595 2.11598 1.16174 2.11635 0.916785 2.22944C0.602771 2.37441 0.258693 2.71808 0.113548 3.03172L0 3.27706V11.7473V20.2176L0.113548 20.4629C0.258693 20.7766 0.602771 21.1202 0.916785 21.2652C1.16169 21.3783 1.17653 21.3787 6.01027 21.3928L10.8581 21.4072V22.6145V23.8218L9.78816 23.8427C8.76015 23.8629 8.70372 23.8696 8.34834 24.0131C7.5563 24.3331 7.00573 24.9254 6.74102 25.7423L6.67798 25.9368L5.75739 25.9534L4.83675 25.97L4.69161 26.1151C4.48897 26.3177 4.48903 26.625 4.69171 26.8275L4.83702 26.9727L13.4734 26.9863L22.1098 27L22.2817 26.8466C22.4241 26.7196 22.4536 26.6551 22.4536 26.4713C22.4536 26.2877 22.424 26.2231 22.2822 26.0965L22.1108 25.9436H21.2176H20.3242L20.2601 25.7457C19.9941 24.9251 19.445 24.3336 18.6517 24.0131C18.2963 23.8696 18.2398 23.8629 17.2118 23.8427L16.1419 23.8218V22.6145V21.4072L20.9897 21.3928C25.8235 21.3787 25.8383 21.3783 26.0832 21.2652C26.3972 21.1202 26.7413 20.7766 26.8865 20.4629L27 20.2176V11.7473V3.27706L26.8865 3.03172C26.7413 2.71808 26.3972 2.37441 26.0832 2.22944C25.8383 2.11635 25.824 2.11598 20.9671 2.10178L16.0965 2.08753L16.0327 1.89069C15.6745 0.78533 14.7545 0.0593159 13.6426 0.00458912C13.4043 -0.00712675 13.1106 0.00437802 12.9898 0.0301318ZM14.1451 1.18029C14.4538 1.31666 14.7996 1.66122 14.944 1.97623C15.1003 2.31705 15.1003 2.91772 14.944 3.25854C14.8003 3.57218 14.4559 3.9161 14.1419 4.0597C13.8007 4.21576 13.1993 4.21576 12.8581 4.0597C12.1793 3.74934 11.7942 2.9705 11.9659 2.25551C12.1945 1.30357 13.2479 0.783852 14.1451 1.18029ZM13.3092 2.14136C13.1428 2.20849 12.9716 2.4531 12.9716 2.62367C12.9716 2.83492 13.2145 3.08845 13.4531 3.12629C13.614 3.15183 13.6719 3.13167 13.8218 2.99794C13.9702 2.86548 13.9996 2.80268 13.9996 2.61739C13.9996 2.43373 13.97 2.36914 13.8282 2.24258C13.6546 2.08764 13.5115 2.05972 13.3092 2.14136ZM10.9669 3.34303C11.233 4.16372 11.7824 4.75548 12.5753 5.07534C12.8996 5.20612 13.0136 5.22448 13.5 5.22448C13.9864 5.22448 14.1004 5.20612 14.4247 5.07534C15.2179 4.75537 15.767 4.16377 16.0333 3.34219L16.0978 3.14349L20.874 3.15748L25.6503 3.17151L25.7968 3.31786L25.9432 3.46415L25.957 10.1653L25.9709 16.8664H21.9826H17.9944L17.8145 16.4774C17.3314 15.4332 16.5453 14.6439 15.4915 14.1453C15.1148 13.967 14.3859 13.7527 14.1563 13.7527C13.8481 13.7527 13.8663 13.6782 14.1905 13.6125C15.5769 13.3317 16.6684 11.9754 16.6684 10.5335C16.6684 8.82595 15.2096 7.36891 13.5 7.36891C11.7904 7.36891 10.3316 8.82595 10.3316 10.5335C10.3316 11.9754 11.4231 13.3317 12.8095 13.6125C13.1337 13.6782 13.1519 13.7527 12.8437 13.7527C12.6141 13.7527 11.8852 13.967 11.5085 14.1453C10.4547 14.6439 9.66859 15.4332 9.18555 16.4774L9.00558 16.8664H5.01735H1.02912L1.04296 10.1696C1.05659 3.55703 1.05807 3.47138 1.16243 3.35554C1.22055 3.29099 1.31566 3.2188 1.37378 3.195C1.4319 3.17125 3.59972 3.1503 6.19108 3.14845L10.9028 3.14513L10.9669 3.34303ZM18.5929 5.30781C18.4266 5.37494 18.2554 5.61955 18.2554 5.79012C18.2554 5.88168 18.3157 6.00791 18.4095 6.11283L18.5636 6.28519L20.4937 6.30023L22.4237 6.31532L22.5972 6.16054C22.7411 6.03203 22.7706 5.96802 22.7706 5.78383C22.7706 5.60018 22.741 5.53559 22.5992 5.40903L22.4279 5.25609L20.5662 5.25942C19.5422 5.26127 18.6543 5.28306 18.5929 5.30781ZM24.1937 5.30781C24.0274 5.37494 23.8562 5.61955 23.8562 5.79012C23.8562 6.00137 24.099 6.2549 24.3377 6.29274C24.4986 6.31828 24.5565 6.29812 24.7063 6.16439C24.8547 6.03193 24.8841 5.96913 24.8841 5.78383C24.8841 5.60018 24.8545 5.53559 24.7127 5.40903C24.5391 5.25409 24.396 5.22617 24.1937 5.30781ZM13.9924 8.50144C14.8487 8.7242 15.4082 9.33068 15.5728 10.2144C15.6869 10.8276 15.4514 11.5448 14.982 12.0137C14.5125 12.4826 13.7944 12.7178 13.1805 12.6038C12.2427 12.4296 11.6017 11.7893 11.4272 10.8526C11.3139 10.2437 11.5485 9.52225 12.0099 9.06137C12.5495 8.52255 13.2802 8.31615 13.9924 8.50144ZM14.4511 14.8848C14.6109 14.9279 14.9438 15.063 15.1908 15.185C15.5498 15.3622 15.7301 15.4977 16.0893 15.8595C16.3364 16.1085 16.6054 16.437 16.687 16.5893L16.8354 16.8664H13.5H10.1646L10.313 16.5893C10.3946 16.437 10.6647 16.1074 10.9133 15.8568C11.296 15.4712 11.4417 15.3647 11.8646 15.1618C12.1393 15.03 12.4948 14.8967 12.6546 14.8657C12.8144 14.8347 12.9928 14.7982 13.0509 14.7848C13.2443 14.7401 14.1563 14.8053 14.4511 14.8848ZM25.9595 18.9763L25.9432 20.0307L25.7967 20.1769L25.6503 20.3231H13.5H1.34974L1.20327 20.1769L1.05675 20.0307L1.04048 18.9763L1.02415 17.9219H13.5H25.9758L25.9595 18.9763ZM15.0851 22.6188V23.8326H13.5H11.9149V22.6188V21.405H13.5H15.0851V22.6188ZM18.1843 24.9667C18.5365 25.0712 18.8595 25.3122 19.0505 25.613C19.1363 25.7481 19.2065 25.8778 19.2065 25.9011C19.2065 25.9245 16.6386 25.9436 13.5 25.9436C10.3614 25.9436 7.79354 25.9245 7.79354 25.9011C7.79354 25.798 8.11696 25.3636 8.29428 25.2285C8.40144 25.1468 8.612 25.0376 8.76216 24.9858C9.01573 24.8983 9.35267 24.8914 13.4772 24.8898C17.2623 24.8883 17.9584 24.8997 18.1843 24.9667Z" fill="#23212B"/>
</svg>
