<svg width="148" height="144" viewBox="0 0 148 144" fill="none" xmlns="http://www.w3.org/2000/svg">
<path d="M101.648 65.5317C101.803 66.8413 101.908 68.1663 101.961 69.5047L100.962 69.5439C100.987 70.1927 101 70.8449 101 71.5C101 72.1551 100.987 72.8073 100.962 73.4561L101.961 73.4953C101.908 74.8337 101.803 76.1587 101.648 77.4683L100.655 77.3503C100.5 78.6516 100.294 79.9374 100.039 81.2057L101.02 81.4025C100.757 82.7127 100.443 84.0047 100.079 85.2763L99.1177 85.0015C98.7586 86.2585 98.3505 87.4951 97.8957 88.7093L98.8322 89.0601C98.3645 90.3087 97.8484 91.5341 97.2861 92.7339L96.3806 92.3095C95.8266 93.4914 95.227 94.6481 94.5838 95.7773L95.4527 96.2723C94.7941 97.4286 94.0907 98.5567 93.3451 99.6542L92.5179 99.0922C91.7852 100.171 91.0107 101.219 90.1968 102.235L90.9772 102.86C90.1462 103.897 89.2749 104.902 88.3657 105.87L87.6365 105.186C86.7452 106.136 85.8167 107.051 84.8533 107.928L85.5269 108.668C84.5457 109.562 83.529 110.418 82.4791 111.235L81.8651 110.446C80.8382 111.244 79.7789 112.004 78.6896 112.723L79.2402 113.558C78.1334 114.288 76.9961 114.976 75.8307 115.621L75.3468 114.746C74.21 115.374 73.0459 115.96 71.8567 116.501L72.2708 117.412C71.0653 117.96 69.8344 118.463 68.5804 118.919L68.2387 117.98C67.0203 118.423 65.7797 118.82 64.519 119.17L64.7863 120.133C63.5125 120.487 62.2185 120.792 60.9065 121.048L60.7152 120.066C59.4449 120.314 58.1574 120.514 56.8544 120.664L56.9691 121.658C55.6591 121.809 54.3339 121.911 52.9954 121.962L52.9574 120.963C52.3081 120.988 51.6555 121 51 121C50.3445 121 49.6919 120.988 49.0426 120.963L49.0045 121.962C47.6661 121.911 46.3409 121.809 45.0309 121.658L45.1456 120.664C43.8426 120.514 42.555 120.314 41.2848 120.066L41.0935 121.048C39.7815 120.792 38.4875 120.487 37.2137 120.133L37.481 119.17C36.2202 118.82 34.9796 118.423 33.7613 117.98L33.4196 118.919C32.1656 118.463 30.9347 117.96 29.7292 117.412L30.1433 116.501C28.9541 115.96 27.79 115.374 26.6532 114.746L26.1693 115.621C25.0039 114.976 23.8666 114.288 22.7598 113.558L23.3104 112.723C22.2211 112.004 21.1618 111.244 20.1349 110.446L19.5209 111.235C18.471 110.418 17.4543 109.562 16.4731 108.668L17.1467 107.928C16.1833 107.051 15.2548 106.136 14.3635 105.186L13.6343 105.87C12.7251 104.902 11.8538 103.897 11.0228 102.86L11.8032 102.235C10.9892 101.219 10.2148 100.171 9.48208 99.0922L8.65494 99.6542C7.90925 98.5567 7.20593 97.4286 6.54729 96.2722L7.41622 95.7773C6.77303 94.6481 6.17335 93.4914 5.61942 92.3095L4.71394 92.7339C4.15162 91.534 3.63548 90.3087 3.16779 89.0601L4.10425 88.7093C3.64946 87.4951 3.24142 86.2585 2.88228 85.0015L1.92076 85.2762C1.55745 84.0047 1.24319 82.7127 0.980118 81.4025L1.96055 81.2057C1.7059 79.9374 1.50018 78.6516 1.34545 77.3503L0.352441 77.4683C0.196713 76.1587 0.0915964 74.8337 0.0390801 73.4953L1.03831 73.4561C1.01285 72.8073 1 72.1551 1 71.5C1 70.8449 1.01285 70.1927 1.03831 69.5439L0.0390804 69.5047C0.091597 68.1663 0.196714 66.8413 0.352442 65.5317L1.34545 65.6497C1.50019 64.3484 1.7059 63.0626 1.96055 61.7943L0.980121 61.5975C1.24319 60.2873 1.55746 58.9953 1.92076 57.7237L2.88229 57.9985C3.24142 56.7415 3.64946 55.5049 4.10426 54.2907L3.16779 53.9399C3.63549 52.6913 4.15163 51.4659 4.71394 50.2661L5.61943 50.6905C6.17335 49.5086 6.77303 48.3519 7.41623 47.2227L6.5473 46.7277C7.20593 45.5714 7.90925 44.4433 8.65494 43.3458L9.48208 43.9078C10.2148 42.8295 10.9892 41.7811 11.8032 40.7651L11.0228 40.1399C11.8538 39.1026 12.7251 38.0984 13.6343 37.1297L14.3635 37.814C15.2548 36.8644 16.1833 35.9495 17.1467 35.0715L16.4731 34.3324C17.4543 33.4382 18.471 32.5816 19.5209 31.765L20.1349 32.5543C21.1618 31.7555 22.2211 30.9957 23.3104 30.2771L22.7598 29.4423C23.8666 28.7122 25.0039 28.0238 26.1693 27.3793L26.6532 28.2544C27.79 27.6258 28.9541 27.0398 30.1434 26.4987L29.7292 25.5885C30.9347 25.0399 32.1656 24.5366 33.4196 24.0806L33.7613 25.0204C34.9797 24.5774 36.2203 24.18 37.481 23.8303L37.2137 22.8667C38.4875 22.5134 39.7815 22.2078 41.0935 21.9521L41.2848 22.9336C42.5551 22.686 43.8426 22.486 45.1456 22.3356L45.0309 21.3422C46.3409 21.191 47.6661 21.0889 49.0046 21.0379L49.0426 22.0372C49.6919 22.0125 50.3445 22 51 22C51.6555 22 52.3081 22.0125 52.9574 22.0372L52.9955 21.0379C54.3339 21.0889 55.6591 21.191 56.9691 21.3422L56.8544 22.3356C58.1574 22.486 59.445 22.686 60.7152 22.9336L60.9065 21.9521C62.2185 22.2078 63.5125 22.5134 64.7863 22.8667L64.519 23.8303C65.7797 24.18 67.0204 24.5774 68.2387 25.0204L68.5804 24.0806C69.8344 24.5366 71.0653 25.04 72.2708 25.5885L71.8567 26.4987C73.0459 27.0398 74.21 27.6258 75.3468 28.2544L75.8307 27.3793C76.9961 28.0238 78.1334 28.7122 79.2402 29.4423L78.6896 30.2771C79.7789 30.9957 80.8382 31.7555 81.8651 32.5543L82.4791 31.765C83.529 32.5816 84.5457 33.4382 85.5269 34.3324L84.8533 35.0715C85.8167 35.9495 86.7452 36.8644 87.6365 37.814L88.3657 37.1297C89.2749 38.0984 90.1462 39.1026 90.9772 40.1399L90.1968 40.7651C91.0108 41.7811 91.7852 42.8295 92.5179 43.9078L93.3451 43.3458C94.0908 44.4433 94.7941 45.5714 95.4527 46.7278L94.5838 47.2227C95.227 48.3519 95.8267 49.5086 96.3806 50.6905L97.2861 50.2661C97.8484 51.466 98.3645 52.6913 98.8322 53.9399L97.8957 54.2907C98.3505 55.5049 98.7586 56.7415 99.1177 57.9985L100.079 57.7238C100.443 58.9953 100.757 60.2873 101.02 61.5975L100.039 61.7943C100.294 63.0626 100.5 64.3484 100.655 65.6497L101.648 65.5317Z" fill="white" stroke="#23212B" stroke-width="2" stroke-dasharray="4 4"/>
<path d="M73 71L41 51V91L73 71Z" fill="#23212B"/>
<path d="M104.125 8.86789L105.301 9.49491L98.0373 16.5686L96.8912 15.9576L98.4362 7.95803L92.6624 13.7036L91.5162 13.0926L93.3391 3.11857L94.5396 3.75846L92.9169 11.9181L98.8286 6.04468L99.8361 6.58167L98.2556 14.7638L104.125 8.86789Z" fill="black"/>
<path d="M117.045 22.6219L117.895 23.4725L112.85 28.5196L111.999 27.669L112.907 26.7601C112.369 26.8665 111.838 26.8408 111.312 26.683C110.793 26.5251 110.328 26.24 109.915 25.8276C109.441 25.3539 109.126 24.8094 108.968 24.1939C108.813 23.5752 108.827 22.9549 109.011 22.3329C109.201 21.7109 109.542 21.1534 110.035 20.6603C110.528 20.1672 111.084 19.8272 111.703 19.6402C112.328 19.4532 112.948 19.4386 113.564 19.5964C114.183 19.751 114.729 20.0651 115.203 20.5388C115.615 20.9512 115.899 21.4184 116.054 21.9405C116.215 22.4625 116.242 22.9926 116.136 23.5308L117.045 22.6219ZM110.896 25.1652C111.412 25.6808 112.015 25.9353 112.704 25.9287C113.397 25.9254 114.003 25.6643 114.522 25.1454C115.04 24.6265 115.301 24.0207 115.304 23.3278C115.311 22.6382 115.056 22.0357 114.54 21.5201C114.022 21.0014 113.416 20.7436 112.723 20.747C112.03 20.7503 111.424 21.0114 110.906 21.5303C110.387 22.0492 110.126 22.655 110.123 23.3478C110.12 24.0407 110.377 24.6465 110.896 25.1652Z" fill="black"/>
<path d="M125.606 35.5806L124.452 33.7709L121.12 35.8956C120.498 36.2926 120.393 36.8139 120.804 37.4594C120.983 37.7399 121.237 37.9726 121.566 38.1575L120.609 38.7677C120.25 38.5696 119.943 38.2707 119.689 37.8711C119.318 37.2909 119.19 36.7541 119.302 36.2608C119.414 35.7675 119.751 35.342 120.312 34.9842L123.805 32.7566L123.114 31.673L124.03 31.0886L124.721 32.1721L126.341 31.1391L126.988 32.1535L125.368 33.1864L126.522 34.9962L125.606 35.5806Z" fill="black"/>
<path d="M125.211 48.94C124.962 48.2741 124.886 47.6113 124.985 46.9516C125.088 46.2903 125.348 45.704 125.766 45.1929C126.189 44.6845 126.727 44.3082 127.38 44.064C128.033 43.8199 128.684 43.7517 129.332 43.8596C129.986 43.9701 130.567 44.2419 131.075 44.675C131.586 45.1065 131.967 45.6552 132.216 46.3212C132.461 46.9785 132.533 47.6328 132.431 48.284C132.333 48.9336 132.083 49.5064 131.68 50.0026L130.724 49.2432C131.011 48.9026 131.19 48.5097 131.262 48.0644C131.338 47.6175 131.293 47.1721 131.127 46.7281C130.87 46.0408 130.426 45.555 129.794 45.2706C129.162 44.9862 128.503 44.9725 127.815 45.2294C127.128 45.4863 126.639 45.9294 126.349 46.5585C126.059 47.1876 126.042 47.8458 126.299 48.533C126.465 48.977 126.723 49.3426 127.074 49.6299C127.425 49.9173 127.82 50.0955 128.259 50.1648L128.036 51.3647C127.402 51.2563 126.832 50.9877 126.327 50.5589C125.827 50.1327 125.455 49.5931 125.211 48.94Z" fill="black"/>
<path d="M136.337 62.8059C136.445 63.6696 136.269 64.3966 135.81 64.9867C135.352 65.5814 134.689 65.9331 133.82 66.0417L129.445 66.5889L129.296 65.3951L133.298 64.8945C133.931 64.8153 134.414 64.5643 134.747 64.1415C135.084 63.7181 135.214 63.1921 135.135 62.5635C135.053 61.9078 134.793 61.4076 134.355 61.0628C133.917 60.718 133.379 60.5855 132.741 60.6653L128.767 61.1625L128.617 59.9687L138.622 58.7172L138.772 59.911L134.729 60.4167C135.66 60.8835 136.196 61.6799 136.337 62.8059Z" fill="black"/>
<path d="M136.074 93.198L135.708 94.5507L127.428 88.1727L127.778 86.8794L138.141 85.5638L137.768 86.9428L129.206 87.9884L136.074 93.198Z" fill="black"/>
<path d="M130.554 103.995C130.659 103.787 130.813 103.648 131.017 103.577C131.225 103.509 131.431 103.526 131.634 103.628C131.842 103.733 131.978 103.888 132.043 104.094C132.107 104.3 132.087 104.507 131.983 104.714C131.88 104.918 131.728 105.053 131.526 105.12C131.324 105.186 131.119 105.167 130.912 105.063C130.708 104.96 130.572 104.805 130.503 104.597C130.437 104.395 130.454 104.194 130.554 103.995ZM123.175 99.604L129.549 102.815L129.008 103.889L122.634 100.678L123.175 99.604Z" fill="black"/>
<path d="M123.124 118.34L122.385 119.29L114.427 113.099L115.165 112.149L116.18 112.939C116.007 112.418 115.967 111.887 116.059 111.346C116.151 110.812 116.376 110.314 116.734 109.854C117.146 109.325 117.647 108.944 118.238 108.711C118.833 108.481 119.45 108.418 120.09 108.524C120.731 108.635 121.326 108.905 121.877 109.333C122.427 109.761 122.833 110.271 123.096 110.861C123.359 111.459 123.45 112.072 123.369 112.703C123.293 113.336 123.049 113.917 122.637 114.445C122.279 114.906 121.851 115.245 121.352 115.463C120.854 115.688 120.331 115.781 119.784 115.742L123.124 118.34ZM117.513 110.745C117.065 111.321 116.888 111.951 116.979 112.634C117.069 113.321 117.403 113.89 117.982 114.34C118.561 114.791 119.195 114.975 119.882 114.892C120.567 114.813 121.134 114.486 121.582 113.91C122.032 113.331 122.213 112.698 122.124 112.011C122.035 111.324 121.7 110.755 121.121 110.304C120.542 109.854 119.909 109.67 119.221 109.753C118.533 109.835 117.964 110.166 117.513 110.745Z" fill="black"/>
<path d="M105.04 126.568C104.997 126.515 104.896 126.368 104.736 126.129L109.558 122.319C109.072 121.902 108.523 121.688 107.911 121.678C107.298 121.675 106.721 121.886 106.181 122.312C105.781 122.629 105.479 123.004 105.276 123.438C105.075 123.875 104.986 124.302 105.008 124.72L103.918 124.675C103.902 124.073 104.032 123.485 104.31 122.911C104.585 122.339 104.991 121.842 105.527 121.418C106.403 120.726 107.356 120.432 108.385 120.537C109.414 120.641 110.261 121.114 110.925 121.954C111.354 122.498 111.617 123.091 111.714 123.735C111.809 124.386 111.732 125.016 111.482 125.626C111.232 126.236 110.832 126.758 110.281 127.193C109.734 127.625 109.136 127.891 108.489 127.99C107.841 128.09 107.213 128.014 106.603 127.764C105.996 127.518 105.475 127.119 105.04 126.568ZM109.605 126.316C110.092 125.931 110.392 125.448 110.506 124.864C110.622 124.284 110.536 123.719 110.247 123.169L106.39 126.216C106.864 126.632 107.395 126.848 107.983 126.865C108.575 126.886 109.115 126.703 109.605 126.316Z" fill="black"/>
<path d="M93.0427 129.229C93.6874 128.93 94.3424 128.803 95.0078 128.851C95.6751 128.902 96.2796 129.116 96.8215 129.493C97.3612 129.875 97.778 130.382 98.072 131.014C98.366 131.647 98.4844 132.29 98.427 132.945C98.3675 133.606 98.1415 134.206 97.749 134.746C97.3584 135.289 96.8408 135.711 96.1962 136.011C95.2209 136.464 94.2539 136.519 93.2952 136.176C92.3323 135.835 91.627 135.183 91.1793 134.22C90.7315 133.257 90.6874 132.297 91.0469 131.341C91.4022 130.387 92.0675 129.683 93.0427 129.229ZM93.5327 130.283C92.8716 130.591 92.4257 131.069 92.1953 131.719C91.9606 132.371 91.998 133.03 92.3074 133.695C92.6168 134.36 93.0963 134.813 93.746 135.054C94.3916 135.297 95.045 135.264 95.7061 134.957C96.3714 134.647 96.8214 134.167 97.056 133.515C97.2906 132.863 97.2533 132.204 96.9439 131.539C96.6345 130.874 96.155 130.421 95.5053 130.18C94.8556 129.939 94.1981 129.974 93.5327 130.283Z" fill="black"/>
</svg>
